<?xml version="1.0" encoding="utf-8"?>
<!-- Generator: Adobe Illustrator 24.0.0, SVG Export Plug-In . SVG Version: 6.00 Build 0)  -->
<svg version="1.1" id="OutlineExpand" xmlns="http://www.w3.org/2000/svg" xmlns:xlink="http://www.w3.org/1999/xlink" x="0px"
	 y="0px" viewBox="0 0 512 512" style="enable-background:new 0 0 512 512;" xml:space="preserve">
<style type="text/css">
	.st0{fill:#FFFFFF;}
</style>
<path id="_x3C_Tuerca_x3E_" class="st0" d="M16.6,348.9c0.3,3.5,2.8,6.4,6.3,7.2l27.9,6c1,4.8,2.2,9.4,3.7,14l-21.1,19.1
	c-2.6,2.4-3.4,6.2-1.8,9.4c3.9,8.1,8.2,15.6,12.8,22.3c2,2.9,5.7,4.1,9,3.1l27.1-8.7c3.2,3.6,6.7,7.1,10.3,10.3l-8.7,27.1
	c-1.1,3.4,0.2,7,3.1,9c6.7,4.6,14.2,8.9,22.3,12.8c3.2,1.5,7,0.8,9.4-1.8l19.1-21.1c4.6,1.5,9.3,2.8,14,3.7l6,27.9
	c0.7,3.4,3.7,6,7.2,6.3c4.3,0.3,8.5,0.6,12.9,0.6s8.6-0.3,12.9-0.6c3.5-0.3,6.4-2.8,7.2-6.3l6-27.9c4.8-1,9.4-2.2,14-3.7l19.1,21.1
	c2.4,2.6,6.2,3.4,9.4,1.8c8.1-3.9,15.6-8.2,22.3-12.8c2.9-2,4.1-5.7,3.1-9l-8.7-27.1c3.6-3.2,7.1-6.7,10.3-10.3l27.1,8.7
	c3.4,1.1,7-0.2,9-3.1c4.6-6.7,8.9-14.2,12.8-22.3c1.5-3.2,0.8-7-1.8-9.4l-21.1-19.1c1.5-4.6,2.8-9.3,3.7-14l27.9-6
	c3.4-0.7,6-3.7,6.3-7.2c0.3-4.3,0.6-8.5,0.6-12.9s-0.3-8.6-0.6-12.9c-0.3-3.5-2.8-6.4-6.3-7.2l-27.9-6c-1-4.8-2.2-9.4-3.7-14
	l21.1-19.1c2.6-2.4,3.4-6.2,1.8-9.4c-3.9-8.1-8.2-15.6-12.8-22.3c-2-2.9-5.7-4.2-9-3.1l-27.1,8.7c-3.2-3.6-6.7-7.1-10.3-10.3
	l8.7-27.1c1.1-3.4-0.2-7-3.1-9c-6.7-4.6-14.2-8.9-22.3-12.8c-3.2-1.5-7-0.8-9.4,1.8l-19.1,21.1c-4.6-1.5-9.3-2.8-14-3.7l-6-27.9
	c-0.7-3.4-3.7-6-7.2-6.3c-8.5-0.7-17.2-0.7-25.7,0c-3.5,0.3-6.4,2.8-7.2,6.3l-6,27.9c-4.8,1-9.4,2.2-14,3.7l-19.1-21.1
	c-2.4-2.6-6.2-3.4-9.4-1.8c-8.1,3.9-15.6,8.2-22.3,12.8c-2.9,2-4.1,5.7-3.1,9l8.7,27.1c-3.6,3.2-7.1,6.7-10.3,10.3l-27.1-8.7
	c-3.4-1.1-7,0.2-9,3.1c-4.6,6.7-8.9,14.2-12.8,22.3c-1.5,3.2-0.8,7,1.8,9.4l21.1,19.1c-1.5,4.6-2.8,9.3-3.7,14l-27.9,6
	c-3.4,0.7-6,3.7-6.3,7.2c-0.3,4.3-0.6,8.5-0.6,12.9S16.3,344.6,16.6,348.9L16.6,348.9z M32.2,330.3l27.2-5.9
	c3.2-0.7,5.7-3.3,6.2-6.5c1.2-7.4,3.1-14.6,5.8-21.5c1.2-3.1,0.3-6.6-2.1-8.8L48.7,269c1.8-3.4,3.7-6.7,5.6-9.8l26.4,8.5
	c3.1,1,6.6,0,8.6-2.5c4.7-5.8,10-11.1,15.8-15.8c2.5-2.1,3.6-5.5,2.5-8.6l-8.5-26.4c3.1-1.9,6.4-3.8,9.8-5.6l18.6,20.6
	c2.2,2.4,5.7,3.3,8.8,2.1c6.9-2.6,14.1-4.6,21.5-5.8c3.2-0.5,5.8-3,6.5-6.2l5.9-27.2c3.8-0.2,7.6-0.2,11.4,0l5.9,27.2
	c0.7,3.2,3.3,5.7,6.5,6.2c7.4,1.2,14.6,3.1,21.5,5.8c3.1,1.2,6.5,0.3,8.8-2.1l18.6-20.6c3.4,1.8,6.7,3.7,9.8,5.6l-8.5,26.4
	c-1,3.1,0,6.6,2.5,8.6c5.8,4.7,11.1,10,15.8,15.8c2.1,2.6,5.5,3.6,8.6,2.5l26.4-8.5c1.9,3.1,3.8,6.4,5.6,9.8l-20.6,18.6
	c-2.4,2.2-3.3,5.7-2.1,8.8c2.6,6.9,4.6,14.1,5.8,21.5c0.5,3.2,3,5.8,6.2,6.5l27.2,5.9c0.1,1.9,0.2,3.8,0.2,5.7s-0.1,3.8-0.2,5.7
	l-27.2,5.9c-3.2,0.7-5.7,3.3-6.2,6.5c-1.2,7.4-3.1,14.6-5.8,21.5c-1.2,3.1-0.3,6.6,2.1,8.8l20.6,18.6c-1.8,3.4-3.7,6.7-5.6,9.8
	l-26.4-8.5c-3.1-1-6.6,0-8.6,2.5c-4.7,5.8-10,11.1-15.8,15.8c-2.5,2.1-3.6,5.5-2.5,8.6l8.5,26.4c-3.1,1.9-6.4,3.8-9.8,5.6
	l-18.6-20.6c-2.2-2.4-5.7-3.3-8.8-2.1c-6.9,2.6-14.1,4.6-21.5,5.8c-3.2,0.5-5.8,3-6.5,6.2l-5.9,27.2c-3.8,0.2-7.6,0.2-11.4,0
	l-5.9-27.2c-0.7-3.2-3.3-5.7-6.5-6.2c-7.4-1.2-14.6-3.1-21.5-5.8c-3.1-1.2-6.6-0.3-8.8,2.1L109,463.3c-3.4-1.8-6.7-3.7-9.8-5.6
	l8.5-26.4c1-3.1,0-6.6-2.5-8.6c-5.8-4.7-11.1-10-15.8-15.8c-2.1-2.6-5.5-3.6-8.6-2.5l-26.4,8.5c-1.9-3.1-3.8-6.4-5.6-9.8l20.6-18.6
	c2.4-2.2,3.3-5.7,2.1-8.8c-2.6-6.9-4.6-14.1-5.8-21.5c-0.5-3.2-3-5.8-6.2-6.5l-27.2-5.9c-0.1-1.9-0.2-3.8-0.2-5.7
	S32.1,332.2,32.2,330.3z"/>
<path class="st0" d="M433.8,129.9c3-0.9,5.2-3.6,5.5-6.7c0.5-4,0.7-7.7,0.7-11.2s-0.2-7.1-0.7-11.2c-0.4-3.1-2.5-5.8-5.5-6.7
	l-22.2-7c-0.7-1.8-1.4-3.6-2.2-5.3l10.8-20.6c1.5-2.8,1.1-6.2-0.8-8.7c-4.6-5.9-10-11.2-15.8-15.8c-2.5-2-5.9-2.3-8.7-0.8
	l-20.6,10.8c-1.7-0.8-3.5-1.5-5.3-2.2l-7-22.2c-0.9-3-3.6-5.2-6.7-5.5c-8.1-0.9-14.2-0.9-22.3,0c-3.1,0.4-5.8,2.5-6.7,5.5l-7,22.2
	c-1.8,0.7-3.6,1.4-5.3,2.2l-20.6-10.8c-2.8-1.4-6.2-1.1-8.7,0.8c-5.9,4.6-11.2,10-15.8,15.8c-2,2.5-2.3,5.9-0.8,8.7l10.7,20.6
	c-0.8,1.7-1.5,3.5-2.2,5.3l-22.2,7c-3,0.9-5.2,3.6-5.5,6.7c-0.5,4-0.7,7.7-0.7,11.2s0.2,7.1,0.7,11.2c0.4,3.1,2.5,5.8,5.5,6.7
	l22.2,7c0.7,1.8,1.4,3.6,2.2,5.3l-10.8,20.6c-1.5,2.8-1.1,6.2,0.8,8.7c4.6,5.9,10,11.2,15.8,15.8c2.5,2,5.9,2.3,8.7,0.8l20.6-10.7
	c1.7,0.8,3.5,1.5,5.3,2.2l7,22.2c0.9,3,3.6,5.2,6.7,5.5c4.1,0.5,7.7,0.7,11.2,0.7s7.1-0.2,11.2-0.7c3.1-0.4,5.8-2.5,6.7-5.5l7-22.2
	c1.8-0.7,3.6-1.4,5.3-2.2l20.6,10.8c2.8,1.5,6.2,1.1,8.7-0.8c5.9-4.6,11.2-10,15.8-15.8c2-2.5,2.3-5.9,0.8-8.7l-10.8-20.6
	c0.8-1.7,1.5-3.5,2.2-5.3L433.8,129.9z M402.9,122.8c-2.5,0.8-4.5,2.8-5.3,5.3c-1.1,3.6-2.5,7.1-4.3,10.4c-1.3,2.3-1.3,5.1,0,7.5
	l10.2,19.5c-1.9,2.1-3.9,4.1-6,6L378,161.3c-2.4-1.2-5.2-1.2-7.5,0c-3.3,1.7-6.7,3.2-10.4,4.3c-2.5,0.8-4.5,2.7-5.3,5.3l-6.6,21
	c-2.9,0.2-5.5,0.2-8.4,0l-6.6-21c-0.8-2.5-2.8-4.5-5.3-5.3c-3.6-1.1-7.1-2.5-10.3-4.3c-2.3-1.3-5.1-1.3-7.5,0l-19.5,10.2
	c-2.1-1.9-4.1-3.9-6-6l10.2-19.5c1.2-2.3,1.2-5.2,0-7.5c-1.7-3.3-3.2-6.7-4.3-10.4c-0.8-2.5-2.7-4.5-5.3-5.3l-21-6.6
	c-0.1-1.5-0.1-2.9-0.1-4.2s0-2.8,0.1-4.2l21-6.6c2.5-0.8,4.5-2.8,5.3-5.3c1.1-3.6,2.5-7.1,4.3-10.3c1.3-2.3,1.3-5.1,0-7.5
	l-10.2-19.5c1.9-2.1,3.9-4.1,6-6L310,62.7c2.3,1.2,5.2,1.2,7.5,0c3.3-1.7,6.7-3.2,10.4-4.3c2.5-0.8,4.5-2.7,5.3-5.3l6.6-21
	c2.9-0.2,5.5-0.2,8.4,0l6.6,21c0.8,2.5,2.8,4.5,5.3,5.3c3.6,1.1,7.1,2.5,10.3,4.3c2.3,1.3,5.1,1.3,7.5,0l19.5-10.2
	c2.1,1.9,4.1,3.9,6,6L393.3,78c-1.2,2.3-1.2,5.2,0,7.5c1.7,3.3,3.2,6.7,4.3,10.4c0.8,2.5,2.7,4.5,5.3,5.3l21,6.6
	c0.1,1.5,0.1,2.9,0.1,4.2s0,2.8-0.1,4.2L402.9,122.8z"/>
<path class="st0" d="M490.1,279.7l-13.7-4.9c-0.8-2.2-1.7-4.4-2.7-6.5l6.2-13.2c1.3-2.7,0.9-6-0.9-8.4c-4-5.1-8.6-9.7-13.8-13.8
	c-2.4-1.9-5.6-2.2-8.4-0.9l-13.2,6.2c-2.1-1-4.3-1.9-6.5-2.7l-4.9-13.7c-1-2.9-3.6-4.9-6.6-5.3c-7.1-0.9-12.3-0.9-19.4,0
	c-3,0.4-5.6,2.4-6.6,5.3l-4.9,13.7c-2.2,0.8-4.4,1.7-6.5,2.7l-13.2-6.2c-2.7-1.3-6-0.9-8.4,0.9c-5.1,4-9.7,8.6-13.8,13.8
	c-1.9,2.4-2.2,5.6-0.9,8.4l6.2,13.2c-1,2.1-1.9,4.3-2.7,6.5l-13.7,4.9c-2.9,1-4.9,3.6-5.3,6.6c-0.4,3.5-0.6,6.7-0.6,9.7
	s0.2,6.1,0.6,9.7c0.4,3,2.4,5.6,5.3,6.6l13.7,4.9c0.8,2.2,1.7,4.4,2.7,6.5l-6.2,13.2c-1.3,2.7-0.9,6,0.9,8.4
	c4,5.1,8.6,9.7,13.8,13.8c2.4,1.9,5.6,2.2,8.4,0.9l13.2-6.2c2.1,1,4.3,1.9,6.5,2.7l4.9,13.7c1,2.9,3.6,4.9,6.6,5.3
	c3.6,0.4,6.7,0.7,9.7,0.7s6.1-0.2,9.7-0.6c3-0.4,5.6-2.4,6.6-5.3l4.9-13.7c2.2-0.8,4.4-1.7,6.5-2.7l13.2,6.2c2.7,1.3,6,1,8.4-0.9
	c5.1-4,9.7-8.6,13.8-13.8c1.9-2.4,2.2-5.6,0.9-8.4l-6.2-13.2c1-2.1,1.9-4.3,2.7-6.5l13.7-4.9c2.9-1,4.9-3.6,5.3-6.6
	c0.4-3.6,0.7-6.7,0.7-9.7s-0.2-6.1-0.6-9.7C495,283.3,493,280.7,490.1,279.7L490.1,279.7z M479.9,298.9l-12.7,4.5
	c-2.5,0.9-4.3,2.9-5,5.4c-1,3.8-2.5,7.4-4.4,10.8c-1.3,2.3-1.4,5-0.3,7.4l5.7,12.1c-1.3,1.5-2.7,2.8-4.2,4.2l-12.1-5.7
	c-2.3-1.1-5.1-1-7.4,0.3c-3.4,1.9-7,3.4-10.8,4.4c-2.5,0.7-4.5,2.6-5.4,5l-4.5,12.7c-1.9,0.1-3.9,0.1-5.8,0l-4.5-12.7
	c-0.9-2.5-2.9-4.3-5.4-5c-3.8-1-7.4-2.5-10.8-4.4c-2.3-1.3-5-1.4-7.4-0.3l-12.1,5.7c-1.5-1.3-2.8-2.7-4.2-4.2l5.7-12.1
	c1.1-2.4,1-5.1-0.3-7.4c-1.9-3.4-3.4-7-4.4-10.8c-0.7-2.5-2.6-4.5-5-5.4l-12.7-4.5c-0.1-1-0.1-1.9-0.1-2.9s0-2,0.1-2.9l12.7-4.5
	c2.5-0.9,4.3-2.9,5-5.4c1.1-3.8,2.6-7.4,4.4-10.8c1.3-2.3,1.4-5,0.3-7.4l-5.7-12.1c1.3-1.5,2.7-2.8,4.2-4.2l12.1,5.7
	c2.4,1.1,5.1,1,7.4-0.3c3.4-1.9,7-3.4,10.8-4.4c2.5-0.7,4.5-2.6,5.4-5l4.5-12.7c1.9-0.1,3.9-0.1,5.8,0l4.5,12.7
	c0.9,2.5,2.9,4.3,5.4,5c3.8,1,7.4,2.5,10.8,4.4c2.3,1.3,5,1.4,7.4,0.3l12.1-5.7c1.5,1.3,2.8,2.7,4.2,4.2l-5.7,12.1
	c-1.1,2.4-1,5.1,0.3,7.4c1.9,3.4,3.4,7,4.4,10.8c0.7,2.5,2.6,4.5,5,5.4l12.7,4.5c0.1,1,0.1,1.9,0.1,2.9S480,298,479.9,298.9
	L479.9,298.9z"/>
<path class="st0" d="M176,424c48.5,0,88-39.5,88-88s-39.5-88-88-88s-88,39.5-88,88S127.5,424,176,424z M176,264
	c39.7,0,72,32.3,72,72s-32.3,72-72,72s-72-32.3-72-72S136.3,264,176,264z"/>
<path class="st0" d="M16.2,202.9l12.3,10.2C65.1,169.2,118.9,144,176,144c4.1,0,8.1,0.2,12.2,0.5l-9.9,9.9l11.3,11.3l24-24
	c3.1-3.1,3.1-8.2,0-11.3l-24-24l-11.3,11.3l10.9,10.9c-4.4-0.3-8.8-0.5-13.2-0.5C114.1,128,55.9,155.3,16.2,202.9L16.2,202.9z"/>
<path class="st0" d="M344,72c-22.1,0-40,17.9-40,40s17.9,40,40,40s40-17.9,40-40S366.1,72,344,72z M344,136c-13.2,0-24-10.8-24-24
	s10.8-24,24-24s24,10.8,24,24S357.2,136,344,136z"/>
<path class="st0" d="M416,264c-17.6,0-32,14.4-32,32s14.4,32,32,32s32-14.4,32-32S433.6,264,416,264z M416,312c-8.8,0-16-7.2-16-16
	s7.2-16,16-16s16,7.2,16,16S424.8,312,416,312z"/>
<path class="st0" d="M489.6,40.2l-40-8c-4.4-0.9-8.6,1.9-9.4,6.3l-8,40l15.7,3.1l4.3-21.5c7.8,16.1,11.8,33.9,11.8,52
	c0,27.6-9.1,53.5-26.3,75l12.5,10c19.2-24,29.8-54.2,29.8-85c0-21-4.8-41.6-14-60.2l20.5,4.1L489.6,40.2z"/>
</svg>
