<svg xmlns="http://www.w3.org/2000/svg" viewBox="0 0 606 672.34"><title>envelope</title><path d="M606.6,325.56,501.13,243.62V83.84A13.85,13.85,0,0,0,487.28,70H130.72a13.85,13.85,0,0,0-13.85,13.84V243.62L11.4,325.56A15.21,15.21,0,0,0,6,336.49v392a13.84,13.84,0,0,0,13.84,13.84H598.16A13.84,13.84,0,0,0,612,728.5v-392A16.75,16.75,0,0,0,606.6,325.56Z" transform="translate(-6 -70)" fill="#383838"/><polygon points="206.11 480.63 27.68 629.02 27.82 300.27 206.11 480.63" fill="#050505"/><polygon points="578.32 300.82 578.32 629.15 402.94 483.26 578.32 300.82" fill="#050505"/><path d="M473.44,94.41V446.26l-86,89.42-69.21-57.86a13.84,13.84,0,0,0-17.71,0l-66.31,55.37L145,443.08l-.41-348.67Z" transform="translate(-6 -70)" fill="#fff"/><polygon points="571.53 267.88 495.12 347.47 495.12 208.64 571.53 267.88" fill="#20fc00"/><polygon points="110.88 208.77 110.88 344.7 34.74 267.19 110.88 208.77" fill="#20fc00"/><polygon points="553.82 643.97 52.33 644.8 303 436.34 553.82 643.97" fill="#050505"/></svg>