<?xml version="1.0" encoding="utf-8"?>
<!-- Generator: Adobe Illustrator 24.0.0, SVG Export Plug-In . SVG Version: 6.00 Build 0)  -->
<svg version="1.1" id="Layer_1" xmlns="http://www.w3.org/2000/svg" xmlns:xlink="http://www.w3.org/1999/xlink" x="0px" y="0px"
	 viewBox="0 0 134.1 265.6" style="enable-background:new 0 0 134.1 265.6;" xml:space="preserve">
<style type="text/css">
	.st0{fill:#C1C1C1;}
	.st1{fill:#0076C6;stroke:#000000;stroke-width:0.5;stroke-miterlimit:10;}
	.st2{fill:none;stroke:#000000;stroke-miterlimit:10;}
	.st3{fill:#FFFFFF;}
	.st4{fill:#EAEAEA;}
	.st5{fill:#2A10C4;}
	.st6{fill:#3E00FF;}
	.st7{fill:#3D15BA;}
	.st8{fill:#FFFFFF;stroke:#2B2B2B;stroke-width:0.25;stroke-miterlimit:10;}
	.st9{font-family:'Bangers-Regular';}
	.st10{font-size:8px;}
	.st11{font-size:11.4224px;}
	.st12{fill:none;stroke:#2B2B2B;stroke-width:2;stroke-linecap:round;stroke-miterlimit:10;stroke-dasharray:3,4;}
	.st13{fill:#2B2B2B;}
	.st14{fill:none;stroke:#FFFFFF;stroke-linecap:round;stroke-miterlimit:10;stroke-dasharray:0,4;}
	.st15{fill:none;stroke:#FFFFFF;stroke-width:0.5;stroke-miterlimit:10;}
	.st16{fill:#2B00FF;}
	.st17{font-size:21.0984px;}
</style>
<title>mobile</title>
<path class="st0" d="M23.9,0.5h86.5c12,0,21.7,9.7,21.7,21.7v221.2c0,12-9.7,21.7-21.7,21.7H23.9c-12,0-21.7-9.7-21.7-21.7V22.2
	C2.2,10.2,11.9,0.5,23.9,0.5z"/>
<path d="M76.7,264.7c0-1-1.3-1.9-3-1.9H63.5c-1.6,0-3,0.9-3,1.9v0.9h16.2L76.7,264.7z"/>
<path class="st1" d="M132.4,54.5L132.4,54.5c0.8,0,1.4,0.6,1.4,1.4v31.7c0,0.8-0.6,1.4-1.4,1.4s-1.4-0.6-1.4-1.4V56
	C131,55.2,131.6,54.6,132.4,54.5C132.4,54.6,132.4,54.5,132.4,54.5L132.4,54.5L132.4,54.5z"/>
<path class="st1" d="M1.7,56.6L1.7,56.6c0.8,0,1.4,0.6,1.4,1.4v14.3c-0.1,0.8-0.8,1.4-1.5,1.3c-0.7-0.1-1.2-0.6-1.3-1.3V58
	C0.3,57.2,0.9,56.6,1.7,56.6L1.7,56.6z"/>
<path class="st1" d="M1.7,78.2L1.7,78.2c0.8,0,1.4,0.6,1.4,1.4v14.3c-0.1,0.8-0.8,1.4-1.5,1.3c-0.7-0.1-1.2-0.6-1.3-1.3V79.6
	C0.3,78.9,0.9,78.2,1.7,78.2L1.7,78.2z"/>
<path class="st1" d="M1.7,34.4L1.7,34.4c0.8,0,1.4,0.6,1.4,1.4V45c0.1,0.8-0.5,1.5-1.3,1.5c0,0,0,0,0,0l0,0
	c-0.8,0.1-1.5-0.5-1.6-1.3l0,0c0-0.1,0-0.2,0-0.2v-9.2C0.3,35,0.9,34.4,1.7,34.4L1.7,34.4z"/>
<path class="st0" d="M-134.3,0.5h86.5c12,0,21.7,9.7,21.7,21.7v221.2c0,12-9.7,21.7-21.7,21.7h-86.5c-12,0-21.7-9.7-21.7-21.7V22.2
	C-156,10.2-146.2,0.5-134.3,0.5z"/>
<path class="st2" d="M-134.3,0.5h86.5c12,0,21.7,9.7,21.7,21.7v221.2c0,12-9.7,21.7-21.7,21.7h-86.5c-12,0-21.7-9.7-21.7-21.7V22.2
	C-156,10.2-146.2,0.5-134.3,0.5z"/>
<path d="M-81.4,264.7c0-1-1.3-1.9-3-1.9h-10.2c-1.6,0-3,0.9-3,1.9v0.9h16.2L-81.4,264.7z"/>
<path class="st1" d="M-25.7,54.5L-25.7,54.5c0.8,0,1.4,0.6,1.4,1.4v31.7c0,0.8-0.6,1.4-1.4,1.4s-1.4-0.6-1.4-1.4V56
	C-27.2,55.2-26.5,54.6-25.7,54.5C-25.7,54.6-25.7,54.5-25.7,54.5L-25.7,54.5L-25.7,54.5z"/>
<path class="st1" d="M-156.4,56.6L-156.4,56.6c0.8,0,1.4,0.6,1.4,1.4v14.3c-0.1,0.8-0.8,1.4-1.5,1.3c-0.7-0.1-1.2-0.6-1.3-1.3V58
	C-157.8,57.2-157.2,56.6-156.4,56.6L-156.4,56.6z"/>
<path class="st1" d="M-156.4,78.2L-156.4,78.2c0.8,0,1.4,0.6,1.4,1.4v14.3c-0.1,0.8-0.8,1.4-1.5,1.3c-0.7-0.1-1.2-0.6-1.3-1.3V79.6
	C-157.9,78.9-157.2,78.2-156.4,78.2L-156.4,78.2z"/>
<path class="st1" d="M-156.4,34.4L-156.4,34.4c0.8,0,1.4,0.6,1.4,1.4V45c0.1,0.8-0.5,1.5-1.3,1.5c0,0,0,0,0,0l0,0
	c-0.8,0.1-1.5-0.5-1.6-1.3l0,0c0-0.1,0-0.2,0-0.2v-9.2C-157.8,35-157.2,34.4-156.4,34.4L-156.4,34.4z"/>
<path d="M-133.7,2.9h85.4c9.7,0,17.6,7.9,17.6,17.6v223.9c0,9.7-7.9,17.6-17.6,17.6h-85.4c-9.7,0-17.6-7.9-17.6-17.6V20.5
	C-151.3,10.8-143.4,2.9-133.7,2.9z"/>
<circle class="st3" cx="-91.1" cy="131.6" r="6.8"/>
<circle class="st3" cx="-101.1" cy="125.2" r="0.8"/>
<circle class="st3" cx="-85" cy="125.9" r="1"/>
<circle class="st3" cx="-97.9" cy="133.2" r="0.7"/>
<circle class="st3" cx="-86.1" cy="136.8" r="0.8"/>
<path class="st3" d="M-98.5,6.9h10.3c0.5,0,0.9,0.4,0.9,0.9l0,0c0,0.5-0.4,0.9-0.9,0.9h-10.3c-0.5,0-0.9-0.4-0.9-0.9l0,0
	C-99.4,7.3-99,6.9-98.5,6.9z"/>
<circle class="st3" cx="-83.9" cy="7.8" r="1.2"/>
<g>
	<path class="st4" d="M24.4,2.9h85.4c9.7,0,17.6,7.9,17.6,17.6v223.9c0,9.7-7.9,17.6-17.6,17.6H24.4c-9.7,0-17.6-7.9-17.6-17.6V20.5
		C6.8,10.8,14.7,2.9,24.4,2.9z"/>
	<path class="st5" d="M125.8,61.8c-20.3,0-36.7,16.4-36.7,36.7s16.4,36.7,36.7,36.7c0.5,0,1.1,0,1.6,0V61.8
		C126.9,61.8,126.3,61.8,125.8,61.8z"/>
	<path class="st6" d="M16.3,30.5c-3.3,0-6.5,0.4-9.5,1.2v70.9c3,0.8,6.2,1.2,9.5,1.2c20.3,0,36.7-16.4,36.7-36.7
		S36.6,30.5,16.3,30.5z"/>
	<path class="st7" d="M16.3,135.2c-3.3,0-6.5,0.4-9.5,1.2v70.9c3,0.8,6.2,1.2,9.5,1.2c20.3,0,36.7-16.4,36.7-36.7
		S36.6,135.2,16.3,135.2z"/>
	<text transform="matrix(1 0 0 1 8.854 63.5907)"><tspan x="0" y="0" class="st8 st9 st10">Wireframing</tspan><tspan x="0" y="9.6" class="st8 st9 st10">(borrador)</tspan></text>
	<text transform="matrix(1 0 0 1 8.7288 170.6083)"><tspan x="0" y="0" class="st8 st9 st10">ARQUITECTURA</tspan><tspan x="14.4" y="9.6" class="st8 st9 st10">APP</tspan></text>
	<text transform="matrix(1 0 0 1 94.7247 101.5743)" class="st8 st9 st11">DiSEÑO</text>
	<path class="st12" d="M48.5,46.6l43.1,8.5c0,0,14.1,3-1.8,8.5l-22.1,8.6c0,0-24.8,9.5-2.3,19.1s22.5,9.5,22.5,9.5"/>
	<g>
		<g>
			<path class="st13" d="M88.9,100.6c-2.4-1.8-5.3-4.6-6.8-7l0.3,5.1l-3,4C82,101.5,85.9,100.8,88.9,100.6z"/>
		</g>
	</g>
	<g>
		<g>
			<path class="st13" d="M51.9,178.3c2.3,2,4.9,4.9,6.3,7.5l0.1-5.1l3.3-3.8C58.9,177.8,55,178.3,51.9,178.3z"/>
		</g>
	</g>
	<path class="st12" d="M118.6,136c0,0,21.2,59.4-61.7,45.3"/>
	<g>
		<circle class="st14" cx="69.7" cy="233.3" r="27.4"/>
		<line class="st15" x1="68.6" y1="206" x2="68.6" y2="260.7"/>
		<line class="st15" x1="42.4" y1="233.3" x2="97.1" y2="233.3"/>
	</g>
	<g>
		<path class="st16" d="M76.5,246.3H61c-3.7,0-6.7-3-6.7-6.7V224c0-3.7,3-6.7,6.7-6.7h15.5c3.7,0,6.7,3,6.7,6.7v15.5
			C83.2,243.2,80.2,246.3,76.5,246.3z"/>
		<text transform="matrix(1 0 0 1 61.9111 240.6838)" class="st8 st9 st17">!!</text>
	</g>
</g>
</svg>
