<svg xmlns="http://www.w3.org/2000/svg" viewBox="0 0 292.21 265.65"><title>mobile2</title><rect x="160.26" y="0.5" width="129.88" height="264.65" rx="21.71" fill="#c1c1c1"/><path d="M234.8,264.67c0-1.05-1.33-1.89-3-1.89H221.62c-1.64,0-3,.88-3,1.89v.87h16.21Z" transform="translate(0)"/><path d="M290.55,54.5h0A1.44,1.44,0,0,1,292,55.92V87.63a1.44,1.44,0,0,1-2.88,0V56a1.43,1.43,0,0,1,1.41-1.45h.05Z" transform="translate(0)" fill="#0076c6" stroke="#000" stroke-miterlimit="10" stroke-width="0.5"/><path d="M159.81,56.57h0A1.45,1.45,0,0,1,161.23,58V72.28a1.43,1.43,0,0,1-2.85,0V58a1.44,1.44,0,0,1,1.42-1.42Z" transform="translate(0)" fill="#0076c6" stroke="#000" stroke-miterlimit="10" stroke-width="0.5"/><path d="M159.81,78.22h0a1.44,1.44,0,0,1,1.42,1.42V93.93a1.43,1.43,0,0,1-2.85,0V79.64a1.43,1.43,0,0,1,1.42-1.42Z" transform="translate(0)" fill="#0076c6" stroke="#000" stroke-miterlimit="10" stroke-width="0.5"/><path d="M159.81,34.38h0a1.44,1.44,0,0,1,1.42,1.42V45a1.42,1.42,0,0,1-1.29,1.54h0a1.42,1.42,0,0,1-1.56-1.26h0a1,1,0,0,1,0-.24V35.8a1.44,1.44,0,0,1,1.42-1.42Z" transform="translate(0)" fill="#0076c6" stroke="#000" stroke-miterlimit="10" stroke-width="0.5"/><rect x="2.15" y="0.5" width="129.88" height="264.65" rx="21.71" fill="#c1c1c1"/><rect x="2.15" y="0.5" width="129.88" height="264.65" rx="21.71" fill="none" stroke="#000" stroke-miterlimit="10"/><path d="M76.68,264.67c0-1.05-1.33-1.89-3-1.89H63.5c-1.64,0-3,.88-3,1.89v.87H76.71Z" transform="translate(0)"/><path d="M132.43,54.5h0a1.44,1.44,0,0,1,1.42,1.42V87.63a1.44,1.44,0,0,1-2.88,0V56a1.43,1.43,0,0,1,1.41-1.45h.05Z" transform="translate(0)" fill="#0076c6" stroke="#000" stroke-miterlimit="10" stroke-width="0.5"/><path d="M1.69,56.57h0A1.45,1.45,0,0,1,3.11,58V72.28a1.43,1.43,0,0,1-2.85,0V58a1.44,1.44,0,0,1,1.42-1.42Z" transform="translate(0)" fill="#0076c6" stroke="#000" stroke-miterlimit="10" stroke-width="0.5"/><path d="M1.69,78.22h0a1.44,1.44,0,0,1,1.42,1.42V93.93a1.43,1.43,0,0,1-2.85,0V79.64a1.44,1.44,0,0,1,1.42-1.42Z" transform="translate(0)" fill="#0076c6" stroke="#000" stroke-miterlimit="10" stroke-width="0.5"/><path d="M1.69,34.38h0A1.44,1.44,0,0,1,3.11,35.8V45a1.42,1.42,0,0,1-1.29,1.54h0A1.42,1.42,0,0,1,.26,45.28h0a1,1,0,0,1,0-.24V35.8a1.44,1.44,0,0,1,1.42-1.42Z" transform="translate(0)" fill="#0076c6" stroke="#000" stroke-miterlimit="10" stroke-width="0.5"/><rect x="6.8" y="2.93" width="120.6" height="259.13" rx="17.6"/><circle cx="67.04" cy="131.65" r="6.83" fill="#fff"/><circle cx="56.97" cy="125.15" r="0.79" fill="#fff"/><circle cx="73.08" cy="125.94" r="1.01" fill="#fff"/><circle cx="60.21" cy="133.21" r="0.72" fill="#fff"/><circle cx="71.97" cy="136.79" r="0.79" fill="#fff"/><path d="M59.64,6.91H70a.93.93,0,0,1,.93.93h0a.93.93,0,0,1-.93.92H59.64a.93.93,0,0,1-.93-.92h0A.93.93,0,0,1,59.64,6.91Z" transform="translate(0)" fill="#fff"/><circle cx="74.21" cy="7.84" r="1.17" fill="#fff"/><rect x="164.91" y="2.93" width="120.6" height="259.13" rx="17.6" fill="#eaeaea"/><text/><path d="M283.89,61.78a36.71,36.71,0,1,0,0,73.42c.55,0,1.09,0,1.63,0V61.83C285,61.8,284.44,61.78,283.89,61.78Z" transform="translate(0)" fill="#2a10c4"/><path d="M174.4,30.46a36.56,36.56,0,0,0-9.48,1.25v70.92a36.71,36.71,0,1,0,9.48-72.17Z" transform="translate(0)" fill="#3e00ff"/><path d="M174.4,135.2a36.56,36.56,0,0,0-9.48,1.24v70.93a36.71,36.71,0,1,0,9.48-72.17Z" transform="translate(0)" fill="#3d15ba"/><text transform="translate(166.97 63.59)" font-size="8" fill="#fff" stroke="#2b2b2b" stroke-miterlimit="10" stroke-width="0.25" font-family="Bangers-Regular, Bangers">Wireframing<tspan x="0" y="9.6">(borrador)</tspan></text><text transform="translate(167.01 170.61)" font-size="8" fill="#fff" stroke="#2b2b2b" stroke-miterlimit="10" stroke-width="0.25" font-family="Bangers-Regular, Bangers">A<tspan x="3.46" y="0" letter-spacing="-0.02em">R</tspan><tspan x="6.82" y="0" letter-spacing="-0.01em">Q</tspan><tspan x="10.98" y="0" letter-spacing="0em">U</tspan><tspan x="14.33" y="0" letter-spacing="-0.01em">I</tspan><tspan x="15.89" y="0" letter-spacing="0em">T</tspan><tspan x="18.78" y="0" letter-spacing="-0.01em">E</tspan><tspan x="21.46" y="0">CTURA</tspan><tspan x="14.26" y="9.6">APP</tspan></text><text transform="translate(252.84 101.57)" font-size="11.42" fill="#fff" stroke="#2b2b2b" stroke-miterlimit="10" stroke-width="0.25" font-family="Bangers-Regular, Bangers">DiSEÑO</text><path d="M206.59,46.57l43.06,8.51s14.11,3-1.77,8.51l-22.12,8.65s-24.84,9.51-2.32,19.05L246,100.84" transform="translate(0)" fill="none" stroke="#2b2b2b" stroke-linecap="round" stroke-miterlimit="10" stroke-width="2" stroke-dasharray="3 4"/><path d="M247.05,100.6a30.42,30.42,0,0,1-6.79-7l.26,5-3,4.05A30.39,30.39,0,0,1,247.05,100.6Z" transform="translate(0)" fill="#2b2b2b"/><path d="M210.06,178.25a30.36,30.36,0,0,1,6.31,7.47l.07-5.05,3.29-3.84A30.4,30.4,0,0,1,210.06,178.25Z" transform="translate(0)" fill="#2b2b2b"/><path d="M276.71,136S297.9,195.41,215,181.29" transform="translate(0)" fill="none" stroke="#2b2b2b" stroke-linecap="round" stroke-miterlimit="10" stroke-width="2" stroke-dasharray="3 4"/><circle cx="227.86" cy="233.32" r="27.35" fill="none" stroke="#fff" stroke-linecap="round" stroke-miterlimit="10" stroke-dasharray="0 4"/><line x1="226.72" y1="206" x2="226.72" y2="260.65" fill="none" stroke="#fff" stroke-miterlimit="10" stroke-width="0.5"/><line x1="200.51" y1="233.32" x2="255.22" y2="233.32" fill="none" stroke="#fff" stroke-miterlimit="10" stroke-width="0.5"/><rect x="212.36" y="217.25" width="29" height="29" rx="6.74" fill="#2b00ff"/><text transform="translate(220.03 240.68)" font-size="21.1" fill="#fff" stroke="#2b2b2b" stroke-miterlimit="10" stroke-width="0.25" font-family="Bangers-Regular, Bangers">!!</text></svg>