<svg xmlns="http://www.w3.org/2000/svg" viewBox="0 0 292.2 265.6"><title>screen1</title><path d="M23.9.5h86.5a21.68,21.68,0,0,1,21.7,21.7V243.4a21.68,21.68,0,0,1-21.7,21.7H23.9A21.68,21.68,0,0,1,2.2,243.4V22.2A21.68,21.68,0,0,1,23.9.5Z" transform="translate(158.15)" fill="#c1c1c1"/><path d="M76.7,264.7c0-1-1.3-1.9-3-1.9H63.5c-1.6,0-3,.9-3,1.9v.9H76.7Z" transform="translate(158.15)"/><path d="M132.4,54.5h0a1.37,1.37,0,0,1,1.4,1.4V87.6a1.4,1.4,0,0,1-2.8,0V56a1.52,1.52,0,0,1,1.4-1.5Z" transform="translate(158.15)" fill="#0076c6" stroke="#000" stroke-miterlimit="10" stroke-width="0.5"/><path d="M1.7,56.6h0A1.37,1.37,0,0,1,3.1,58V72.3a1.42,1.42,0,0,1-1.5,1.3A1.49,1.49,0,0,1,.3,72.3V58a1.37,1.37,0,0,1,1.4-1.4Z" transform="translate(158.15)" fill="#0076c6" stroke="#000" stroke-miterlimit="10" stroke-width="0.5"/><path d="M1.7,78.2h0a1.37,1.37,0,0,1,1.4,1.4V93.9a1.42,1.42,0,0,1-1.5,1.3A1.49,1.49,0,0,1,.3,93.9V79.6a1.43,1.43,0,0,1,1.4-1.4Z" transform="translate(158.15)" fill="#0076c6" stroke="#000" stroke-miterlimit="10" stroke-width="0.5"/><path d="M1.7,34.4h0a1.37,1.37,0,0,1,1.4,1.4V45a1.32,1.32,0,0,1-1.3,1.5h0A1.46,1.46,0,0,1,.2,45.2h0V35.8a1.52,1.52,0,0,1,1.5-1.4Z" transform="translate(158.15)" fill="#0076c6" stroke="#000" stroke-miterlimit="10" stroke-width="0.5"/><path d="M-134.3.5h86.5A21.68,21.68,0,0,1-26.1,22.2V243.4a21.68,21.68,0,0,1-21.7,21.7h-86.5A21.68,21.68,0,0,1-156,243.4V22.2A21.74,21.74,0,0,1-134.3.5Z" transform="translate(158.15)" fill="#c1c1c1"/><path d="M-134.3.5h86.5A21.68,21.68,0,0,1-26.1,22.2V243.4a21.68,21.68,0,0,1-21.7,21.7h-86.5A21.68,21.68,0,0,1-156,243.4V22.2A21.74,21.74,0,0,1-134.3.5Z" transform="translate(158.15)" fill="none" stroke="#000" stroke-miterlimit="10"/><path d="M-81.4,264.7c0-1-1.3-1.9-3-1.9H-94.6c-1.6,0-3,.9-3,1.9v.9h16.2Z" transform="translate(158.15)"/><path d="M-25.7,54.5h0a1.37,1.37,0,0,1,1.4,1.4V87.6A1.37,1.37,0,0,1-25.7,89a1.37,1.37,0,0,1-1.4-1.4V56a1.45,1.45,0,0,1,1.4-1.5Z" transform="translate(158.15)" fill="#0076c6" stroke="#000" stroke-miterlimit="10" stroke-width="0.5"/><path d="M-156.4,56.6h0A1.37,1.37,0,0,1-155,58V72.3a1.42,1.42,0,0,1-1.5,1.3,1.49,1.49,0,0,1-1.3-1.3V58a1.37,1.37,0,0,1,1.4-1.4Z" transform="translate(158.15)" fill="#0076c6" stroke="#000" stroke-miterlimit="10" stroke-width="0.5"/><path d="M-156.4,78.2h0a1.37,1.37,0,0,1,1.4,1.4V93.9a1.42,1.42,0,0,1-1.5,1.3,1.49,1.49,0,0,1-1.3-1.3V79.6a1.36,1.36,0,0,1,1.4-1.4Z" transform="translate(158.15)" fill="#0076c6" stroke="#000" stroke-miterlimit="10" stroke-width="0.5"/><path d="M-156.4,34.4h0a1.37,1.37,0,0,1,1.4,1.4V45a1.32,1.32,0,0,1-1.3,1.5h0a1.46,1.46,0,0,1-1.6-1.3h0V35.8a1.52,1.52,0,0,1,1.5-1.4Z" transform="translate(158.15)" fill="#0076c6" stroke="#000" stroke-miterlimit="10" stroke-width="0.5"/><path d="M-133.7,2.9h85.4A17.63,17.63,0,0,1-30.7,20.5V244.4A17.63,17.63,0,0,1-48.3,262h-85.4a17.63,17.63,0,0,1-17.6-17.6V20.5A17.63,17.63,0,0,1-133.7,2.9Z" transform="translate(158.15)"/><circle cx="67.05" cy="131.6" r="6.8" fill="#fff"/><circle cx="57.05" cy="125.2" r="0.8" fill="#fff"/><circle cx="73.15" cy="125.9" r="1" fill="#fff"/><circle cx="60.25" cy="133.2" r="0.7" fill="#fff"/><circle cx="72.05" cy="136.8" r="0.8" fill="#fff"/><path d="M-98.5,6.9h10.3a.9.9,0,0,1,.9.9h0a.9.9,0,0,1-.9.9H-98.5a.9.9,0,0,1-.9-.9h0A.9.9,0,0,1-98.5,6.9Z" transform="translate(158.15)" fill="#fff"/><circle cx="74.25" cy="7.8" r="1.2" fill="#fff"/><path d="M24.4,2.9h85.4a17.63,17.63,0,0,1,17.6,17.6V244.4A17.63,17.63,0,0,1,109.8,262H24.4A17.63,17.63,0,0,1,6.8,244.4V20.5A17.63,17.63,0,0,1,24.4,2.9Z" transform="translate(158.15)" fill="#eaeaea"/><path d="M125.8,61.8a36.7,36.7,0,0,0,0,73.4h1.6V61.8Z" transform="translate(158.15)" fill="#2a10c4"/><path d="M16.3,30.5a36.91,36.91,0,0,0-9.5,1.2v70.9a36.91,36.91,0,0,0,9.5,1.2,36.65,36.65,0,1,0,0-73.3Z" transform="translate(158.15)" fill="#3e00ff"/><path d="M16.3,135.2a36.91,36.91,0,0,0-9.5,1.2v70.9a36.91,36.91,0,0,0,9.5,1.2,36.65,36.65,0,1,0,0-73.3Z" transform="translate(158.15)" fill="#3d15ba"/><g style="isolation:isolate"><text transform="translate(167 63.59)" font-size="8" fill="#fff" font-family="Bangers-Regular, Bangers" style="isolation:isolate">Wireframing</text><text transform="translate(167 63.59)" font-size="8" fill="none" stroke="#2b2b2b" stroke-miterlimit="10" stroke-width="0.25" font-family="Bangers-Regular, Bangers" style="isolation:isolate">Wireframing</text><text transform="translate(167 73.19)" font-size="8" fill="#fff" font-family="Bangers-Regular, Bangers" style="isolation:isolate">(borrador)</text><text transform="translate(167 73.19)" font-size="8" fill="none" stroke="#2b2b2b" stroke-miterlimit="10" stroke-width="0.25" font-family="Bangers-Regular, Bangers" style="isolation:isolate">(borrador)</text></g><g style="isolation:isolate"><text transform="translate(166.88 170.61)" font-size="8" fill="#fff" font-family="Bangers-Regular, Bangers" style="isolation:isolate">A<tspan x="3.46" y="0" letter-spacing="-0.02em">R</tspan><tspan x="6.82" y="0" letter-spacing="-0.01em">Q</tspan><tspan x="10.98" y="0">U</tspan><tspan x="14.33" y="0" letter-spacing="-0.01em">I</tspan><tspan x="15.89" y="0" letter-spacing="0em">T</tspan><tspan x="18.78" y="0" letter-spacing="-0.01em">E</tspan><tspan x="21.46" y="0">CTURA</tspan></text><text transform="translate(166.88 170.61)" font-size="8" fill="none" stroke="#2b2b2b" stroke-miterlimit="10" stroke-width="0.25" font-family="Bangers-Regular, Bangers" style="isolation:isolate">A<tspan x="3.46" y="0" letter-spacing="-0.02em">R</tspan><tspan x="6.82" y="0" letter-spacing="-0.01em">Q</tspan><tspan x="10.98" y="0">U</tspan><tspan x="14.33" y="0" letter-spacing="-0.01em">I</tspan><tspan x="15.89" y="0" letter-spacing="0em">T</tspan><tspan x="18.78" y="0" letter-spacing="-0.01em">E</tspan><tspan x="21.46" y="0">CTURA</tspan></text><text transform="translate(181.28 180.21)" font-size="8" fill="#fff" font-family="Bangers-Regular, Bangers" style="isolation:isolate">APP</text><text transform="translate(181.28 180.21)" font-size="8" fill="none" stroke="#2b2b2b" stroke-miterlimit="10" stroke-width="0.25" font-family="Bangers-Regular, Bangers" style="isolation:isolate">APP</text></g><text transform="translate(252.87 101.57)" font-size="11.42" fill="#fff" font-family="Bangers-Regular, Bangers" style="isolation:isolate">DiSEÑO</text><text transform="translate(252.87 101.57)" font-size="11.42" fill="none" stroke="#2b2b2b" stroke-miterlimit="10" stroke-width="0.25" font-family="Bangers-Regular, Bangers" style="isolation:isolate">DiSEÑO</text><path d="M48.5,46.6l43.1,8.5s14.1,3-1.8,8.5L67.7,72.2s-24.8,9.5-2.3,19.1,22.5,9.5,22.5,9.5" transform="translate(158.15)" fill="none" stroke="#2b2b2b" stroke-linecap="round" stroke-miterlimit="10" stroke-width="2" stroke-dasharray="3 4"/><path d="M88.9,100.6a30,30,0,0,1-6.8-7l.3,5.1-3,4A29.88,29.88,0,0,1,88.9,100.6Z" transform="translate(158.15)" fill="#2b2b2b"/><path d="M51.9,178.3a30,30,0,0,1,6.3,7.5l.1-5.1,3.3-3.8A33.94,33.94,0,0,1,51.9,178.3Z" transform="translate(158.15)" fill="#2b2b2b"/><path d="M118.6,136s21.2,59.4-61.7,45.3" transform="translate(158.15)" fill="none" stroke="#2b2b2b" stroke-linecap="round" stroke-miterlimit="10" stroke-width="2" stroke-dasharray="3 4"/><circle cx="227.85" cy="233.3" r="27.4" fill="none" stroke="#fff" stroke-linecap="round" stroke-miterlimit="10" stroke-dasharray="0 4"/><line x1="226.75" y1="206" x2="226.75" y2="260.7" fill="none" stroke="#fff" stroke-miterlimit="10" stroke-width="0.5"/><line x1="200.55" y1="233.3" x2="255.25" y2="233.3" fill="none" stroke="#fff" stroke-miterlimit="10" stroke-width="0.5"/><path d="M76.5,246.3H61a6.7,6.7,0,0,1-6.7-6.7V224a6.7,6.7,0,0,1,6.7-6.7H76.5a6.7,6.7,0,0,1,6.7,6.7v15.5A6.79,6.79,0,0,1,76.5,246.3Z" transform="translate(158.15)" fill="#2b00ff"/><text transform="translate(220.06 240.68)" font-size="21.1" fill="#fff" font-family="Bangers-Regular, Bangers" style="isolation:isolate">!!</text><text transform="translate(220.06 240.68)" font-size="21.1" fill="none" stroke="#2b2b2b" stroke-miterlimit="10" stroke-width="0.25" font-family="Bangers-Regular, Bangers" style="isolation:isolate">!!</text></svg>