<svg xmlns="http://www.w3.org/2000/svg" viewBox="0 0 134.1 265.1"><title>screen_1</title><path d="M24,0h86.5a21.68,21.68,0,0,1,21.7,21.7V242.9a21.68,21.68,0,0,1-21.7,21.7H24a21.68,21.68,0,0,1-21.7-21.7V21.7A21.68,21.68,0,0,1,24,0Z" fill="#c1c1c1"/><path d="M76.75,264.2c0-1-1.3-1.9-3-1.9H63.55c-1.6,0-3,.9-3,1.9v.9h16.2Z"/><path d="M132.45,54h0a1.37,1.37,0,0,1,1.4,1.4V87.1a1.4,1.4,0,1,1-2.8,0V55.5a1.52,1.52,0,0,1,1.4-1.5Z" fill="#0076c6" stroke="#000" stroke-miterlimit="10" stroke-width="0.5"/><path d="M1.75,56.1h0a1.37,1.37,0,0,1,1.4,1.4V71.8a1.42,1.42,0,0,1-1.5,1.3,1.49,1.49,0,0,1-1.3-1.3V57.5a1.37,1.37,0,0,1,1.4-1.4Z" fill="#0076c6" stroke="#000" stroke-miterlimit="10" stroke-width="0.5"/><path d="M1.75,77.7h0a1.37,1.37,0,0,1,1.4,1.4V93.4a1.42,1.42,0,0,1-1.5,1.3,1.49,1.49,0,0,1-1.3-1.3V79.1a1.43,1.43,0,0,1,1.4-1.4Z" fill="#0076c6" stroke="#000" stroke-miterlimit="10" stroke-width="0.5"/><path d="M1.75,33.9h0a1.37,1.37,0,0,1,1.4,1.4v9.2A1.32,1.32,0,0,1,1.85,46h0a1.46,1.46,0,0,1-1.6-1.3h0V35.3a1.52,1.52,0,0,1,1.5-1.4Z" fill="#0076c6" stroke="#000" stroke-miterlimit="10" stroke-width="0.5"/><path d="M24.45,2.4h85.4A17.63,17.63,0,0,1,127.45,20V243.9a17.63,17.63,0,0,1-17.6,17.6H24.45a17.63,17.63,0,0,1-17.6-17.6V20A17.63,17.63,0,0,1,24.45,2.4Z" fill="#eaeaea"/><path d="M125.85,61.3a36.7,36.7,0,1,0,0,73.4h1.6V61.3Z" fill="#2a10c4"/><path d="M16.35,30a36.91,36.91,0,0,0-9.5,1.2v70.9a36.91,36.91,0,0,0,9.5,1.2,36.65,36.65,0,1,0,0-73.3Z" fill="#3e00ff"/><path d="M16.35,134.7a36.91,36.91,0,0,0-9.5,1.2v70.9a36.91,36.91,0,0,0,9.5,1.2,36.65,36.65,0,1,0,0-73.3Z" fill="#3d15ba"/><g style="isolation:isolate"><text transform="translate(8.9 63.09)" font-size="8" fill="#fff" font-family="Bangers-Regular, Bangers" style="isolation:isolate">Wireframing</text><text transform="translate(8.9 63.09)" font-size="8" fill="none" stroke="#2b2b2b" stroke-miterlimit="10" stroke-width="0.25" font-family="Bangers-Regular, Bangers" style="isolation:isolate">Wireframing</text><text transform="translate(8.9 72.69)" font-size="8" fill="#fff" font-family="Bangers-Regular, Bangers" style="isolation:isolate">(borrador)</text><text transform="translate(8.9 72.69)" font-size="8" fill="none" stroke="#2b2b2b" stroke-miterlimit="10" stroke-width="0.25" font-family="Bangers-Regular, Bangers" style="isolation:isolate">(borrador)</text></g><g style="isolation:isolate"><text transform="translate(8.78 170.11)" font-size="8" fill="#fff" font-family="Bangers-Regular, Bangers" style="isolation:isolate">A<tspan x="3.46" y="0" letter-spacing="-0.02em">R</tspan><tspan x="6.82" y="0" letter-spacing="-0.01em">Q</tspan><tspan x="10.98" y="0">U</tspan><tspan x="14.33" y="0" letter-spacing="-0.01em">I</tspan><tspan x="15.89" y="0" letter-spacing="0em">T</tspan><tspan x="18.78" y="0" letter-spacing="-0.01em">E</tspan><tspan x="21.46" y="0">CTURA</tspan></text><text transform="translate(8.78 170.11)" font-size="8" fill="none" stroke="#2b2b2b" stroke-miterlimit="10" stroke-width="0.25" font-family="Bangers-Regular, Bangers" style="isolation:isolate">A<tspan x="3.46" y="0" letter-spacing="-0.02em">R</tspan><tspan x="6.82" y="0" letter-spacing="-0.01em">Q</tspan><tspan x="10.98" y="0">U</tspan><tspan x="14.33" y="0" letter-spacing="-0.01em">I</tspan><tspan x="15.89" y="0" letter-spacing="0em">T</tspan><tspan x="18.78" y="0" letter-spacing="-0.01em">E</tspan><tspan x="21.46" y="0">CTURA</tspan></text><text transform="translate(23.18 179.71)" font-size="8" fill="#fff" font-family="Bangers-Regular, Bangers" style="isolation:isolate">APP</text><text transform="translate(23.18 179.71)" font-size="8" fill="none" stroke="#2b2b2b" stroke-miterlimit="10" stroke-width="0.25" font-family="Bangers-Regular, Bangers" style="isolation:isolate">APP</text></g><text transform="translate(94.77 101.07)" font-size="11.42" fill="#fff" font-family="Bangers-Regular, Bangers" style="isolation:isolate">DiSEÑO</text><text transform="translate(94.77 101.07)" font-size="11.42" fill="none" stroke="#2b2b2b" stroke-miterlimit="10" stroke-width="0.25" font-family="Bangers-Regular, Bangers" style="isolation:isolate">DiSEÑO</text><path d="M48.55,46.1l43.1,8.5s14.1,3-1.8,8.5l-22.1,8.6S43,81.2,65.45,90.8,88,100.3,88,100.3" fill="none" stroke="#2b2b2b" stroke-linecap="round" stroke-miterlimit="10" stroke-width="2" stroke-dasharray="3 4"/><path d="M89,100.1a30,30,0,0,1-6.8-7l.3,5.1-3,4A29.88,29.88,0,0,1,89,100.1Z" fill="#2b2b2b"/><path d="M52,177.8a30,30,0,0,1,6.3,7.5l.1-5.1,3.3-3.8A33.94,33.94,0,0,1,52,177.8Z" fill="#2b2b2b"/><path d="M118.65,135.5s21.2,59.4-61.7,45.3" fill="none" stroke="#2b2b2b" stroke-linecap="round" stroke-miterlimit="10" stroke-width="2" stroke-dasharray="3 4"/><circle cx="69.75" cy="232.8" r="27.4" fill="none" stroke="#fff" stroke-linecap="round" stroke-miterlimit="10" stroke-dasharray="0 4"/><line x1="68.65" y1="205.5" x2="68.65" y2="260.2" fill="none" stroke="#fff" stroke-miterlimit="10" stroke-width="0.5"/><line x1="42.45" y1="232.8" x2="97.15" y2="232.8" fill="none" stroke="#fff" stroke-miterlimit="10" stroke-width="0.5"/><path d="M76.55,245.8H61.05a6.7,6.7,0,0,1-6.7-6.7V223.5a6.7,6.7,0,0,1,6.7-6.7h15.5a6.7,6.7,0,0,1,6.7,6.7V239A6.79,6.79,0,0,1,76.55,245.8Z" fill="#2b00ff"/><text transform="translate(61.96 240.18)" font-size="21.1" fill="#fff" font-family="Bangers-Regular, Bangers" style="isolation:isolate">!!</text><text transform="translate(61.96 240.18)" font-size="21.1" fill="none" stroke="#2b2b2b" stroke-miterlimit="10" stroke-width="0.25" font-family="Bangers-Regular, Bangers" style="isolation:isolate">!!</text></svg>