<svg xmlns="http://www.w3.org/2000/svg" viewBox="0 0 120.6 259.13"><title>screen_1_2</title><rect width="120.6" height="259.13" rx="17.6" fill="#eaeaea"/><text/><path d="M119,58.85a36.71,36.71,0,0,0,0,73.42c.55,0,1.09,0,1.63,0V58.9C120.06,58.87,119.52,58.85,119,58.85Z" fill="#2a10c4"/><path d="M9.48,27.53A36.56,36.56,0,0,0,0,28.78V99.7A36.71,36.71,0,1,0,9.48,27.53Z" fill="#3e00ff"/><path d="M9.48,132.27A36.56,36.56,0,0,0,0,133.51v70.93a36.71,36.71,0,1,0,9.48-72.17Z" fill="#3d15ba"/><text transform="translate(2.05 60.66)" font-size="8" fill="#fff" stroke="#2b2b2b" stroke-miterlimit="10" stroke-width="0.25" font-family="Bangers-Regular, Bangers">Wireframing<tspan x="0" y="9.6">(borrador)</tspan></text><text transform="translate(2.09 167.68)" font-size="8" fill="#fff" stroke="#2b2b2b" stroke-miterlimit="10" stroke-width="0.25" font-family="Bangers-Regular, Bangers">A<tspan x="3.46" y="0" letter-spacing="-0.02em">R</tspan><tspan x="6.82" y="0" letter-spacing="-0.01em">Q</tspan><tspan x="10.98" y="0" letter-spacing="0em">U</tspan><tspan x="14.33" y="0" letter-spacing="-0.01em">I</tspan><tspan x="15.89" y="0" letter-spacing="0em">T</tspan><tspan x="18.78" y="0" letter-spacing="-0.01em">E</tspan><tspan x="21.46" y="0">CTURA</tspan><tspan x="14.26" y="9.6">APP</tspan></text><text transform="translate(87.92 98.64)" font-size="11.42" fill="#fff" stroke="#2b2b2b" stroke-miterlimit="10" stroke-width="0.25" font-family="Bangers-Regular, Bangers">DiSEÑO</text><path d="M41.67,43.64l43.06,8.51s14.12,3-1.77,8.51L60.85,69.31s-24.85,9.51-2.33,19l22.53,9.55" fill="none" stroke="#2b2b2b" stroke-linecap="round" stroke-miterlimit="10" stroke-width="2" stroke-dasharray="3 4"/><path d="M82.13,97.67a30.17,30.17,0,0,1-6.78-7l.25,5-3,4A30.33,30.33,0,0,1,82.13,97.67Z" fill="#2b2b2b"/><path d="M45.14,175.32a30.36,30.36,0,0,1,6.31,7.47l.07-5,3.3-3.84A30.46,30.46,0,0,1,45.14,175.32Z" fill="#2b2b2b"/><path d="M111.79,133.07S133,192.48,50.05,178.36" fill="none" stroke="#2b2b2b" stroke-linecap="round" stroke-miterlimit="10" stroke-width="2" stroke-dasharray="3 4"/><circle cx="62.95" cy="230.39" r="27.35" fill="none" stroke="#fff" stroke-linecap="round" stroke-miterlimit="10" stroke-dasharray="0 4"/><line x1="61.8" y1="203.07" x2="61.8" y2="257.72" fill="none" stroke="#fff" stroke-miterlimit="10" stroke-width="0.5"/><line x1="35.59" y1="230.39" x2="90.3" y2="230.39" fill="none" stroke="#fff" stroke-miterlimit="10" stroke-width="0.5"/><rect x="47.45" y="214.32" width="29" height="29" rx="6.74" fill="#2b00ff"/><text transform="translate(55.11 237.75)" font-size="21.1" fill="#fff" stroke="#2b2b2b" stroke-miterlimit="10" stroke-width="0.25" font-family="Bangers-Regular, Bangers">!!</text></svg>