<svg xmlns="http://www.w3.org/2000/svg" viewBox="0 0 134.1 265.1"><title>screen_1</title><path d="M24,0h86.5a21.68,21.68,0,0,1,21.7,21.7V242.9a21.68,21.68,0,0,1-21.7,21.7H24a21.68,21.68,0,0,1-21.7-21.7V21.7A21.68,21.68,0,0,1,24,0Z" fill="#c1c1c1"/><path d="M76.75,264.2c0-1-1.3-1.9-3-1.9H63.55c-1.6,0-3,.9-3,1.9v.9h16.2Z"/><path d="M132.45,54h0a1.37,1.37,0,0,1,1.4,1.4V87.1a1.4,1.4,0,1,1-2.8,0V55.5a1.52,1.52,0,0,1,1.4-1.5Z" fill="#0076c6" stroke="#000" stroke-miterlimit="10" stroke-width="0.5"/><path d="M1.75,56.1h0a1.37,1.37,0,0,1,1.4,1.4V71.8a1.42,1.42,0,0,1-1.5,1.3,1.49,1.49,0,0,1-1.3-1.3V57.5a1.37,1.37,0,0,1,1.4-1.4Z" fill="#0076c6" stroke="#000" stroke-miterlimit="10" stroke-width="0.5"/><path d="M1.75,77.7h0a1.37,1.37,0,0,1,1.4,1.4V93.4a1.42,1.42,0,0,1-1.5,1.3,1.49,1.49,0,0,1-1.3-1.3V79.1a1.43,1.43,0,0,1,1.4-1.4Z" fill="#0076c6" stroke="#000" stroke-miterlimit="10" stroke-width="0.5"/><path d="M1.75,33.9h0a1.37,1.37,0,0,1,1.4,1.4v9.2A1.32,1.32,0,0,1,1.85,46h0a1.46,1.46,0,0,1-1.6-1.3h0V35.3a1.52,1.52,0,0,1,1.5-1.4Z" fill="#0076c6" stroke="#000" stroke-miterlimit="10" stroke-width="0.5"/><path d="M24.51,2.4h85.4A17.63,17.63,0,0,1,127.51,20V243.9a17.63,17.63,0,0,1-17.6,17.6H24.51a17.63,17.63,0,0,1-17.6-17.6V20A17.63,17.63,0,0,1,24.51,2.4Z" fill="#45afff"/><path d="M24.69,2.4h85.4c9.7,0,17.6,7.15,17.6,15.94V221.09c0,8.79-7.9,15.94-17.6,15.94H24.69c-9.7,0-17.6-7.15-17.6-15.94V18.34C7.09,9.55,15,2.4,24.69,2.4Z" fill="#757575"/><text transform="translate(16.76 26.68)" font-size="9" fill="#fff" font-family="ArialMT, Arial">Etapa Wireframe</text><text transform="translate(34.73 38.28)" font-size="7" fill="#fff" font-family="ArialMT, Arial">(Esquema-Borrador)</text><rect x="13.91" y="59.1" width="104.45" height="64.8" rx="5" fill="#2699fb"/><rect x="13.78" y="134.7" width="48.49" height="45.01" rx="5" fill="#2699fb"/><rect x="70.4" y="134.7" width="47.96" height="69.7" rx="5" fill="#2699fb"/><circle cx="111.06" cy="27.94" r="10.79" fill="#2699fb"/><text transform="translate(16.46 154.97)" font-size="8" fill="#fff" font-family="ArialMT, Arial">Arquitectura<tspan x="5.56" y="9.6">BackEnd</tspan></text><text/><text transform="translate(77.5 157.2)" font-size="8" fill="#fff" font-family="ArialMT, Arial">Producto<tspan x="7.34" y="9.6">Final</tspan></text><text transform="translate(33 77.7)" font-size="8" fill="#fff" font-family="ArialMT, Arial"><tspan letter-spacing="-0.11em">T</tspan><tspan x="4" y="0">e presentaremos</tspan><tspan x="0" y="9.6">un borrador de tu </tspan><tspan x="0" y="19.2">idea</tspan></text><path d="M103.64,100.25H85.76a2.43,2.43,0,0,0-2.43,2.44v11.38a2.43,2.43,0,0,0,2.43,2.43h17.88a2.43,2.43,0,0,0,2.44-2.43V102.69A2.44,2.44,0,0,0,103.64,100.25Zm.82,9.42-5.12-5.12a.81.81,0,0,0-1.15,0l-6.74,6.74-2.67-2.68a.83.83,0,0,0-1.15,0L85,111.29v-8.6a.82.82,0,0,1,.81-.82h17.88a.82.82,0,0,1,.82.82v7Z" fill="#fff"/><circle cx="90.64" cy="105.94" r="2.44" fill="#fff"/><path d="M103.64,177.17H85.76a2.43,2.43,0,0,0-2.43,2.44V191a2.43,2.43,0,0,0,2.43,2.44h17.88a2.44,2.44,0,0,0,2.44-2.44V179.61A2.44,2.44,0,0,0,103.64,177.17Zm.82,9.42-5.12-5.12a.83.83,0,0,0-1.15,0l-6.74,6.74-2.67-2.67a.81.81,0,0,0-1.15,0L85,188.21v-8.6a.81.81,0,0,1,.81-.81h17.88a.82.82,0,0,1,.82.81v7Z" fill="#fff"/><circle cx="90.64" cy="182.86" r="2.44" fill="#fff"/><path d="M57.91,194.91H26a4.35,4.35,0,0,0-4.35,4.35v20.33A4.35,4.35,0,0,0,26,223.94H57.91a4.36,4.36,0,0,0,4.36-4.35V199.26A4.36,4.36,0,0,0,57.91,194.91Zm1.46,16.82-9.14-9.14a1.44,1.44,0,0,0-2,0l-12,12-4.79-4.78a1.44,1.44,0,0,0-2.05,0l-4.78,4.78V199.26A1.45,1.45,0,0,1,26,197.81H57.91a1.45,1.45,0,0,1,1.46,1.45v12.47Z" fill="#fff"/><circle cx="34.68" cy="205.07" r="4.36" fill="#fff"/><circle cx="30.33" cy="252.3" r="0.73" fill="#fff"/><path d="M30.33,241.32a7.43,7.43,0,1,0,7.43,7.43A7.42,7.42,0,0,0,30.33,241.32Zm0,13.7a6.27,6.27,0,1,1,6.27-6.27A6.27,6.27,0,0,1,30.33,255Z" fill="#fff"/><path d="M30.33,245.05A2.32,2.32,0,0,0,28,247.37a.58.58,0,1,0,1.16,0,1.16,1.16,0,1,1,1.16,1.16.58.58,0,0,0-.58.58v1.45a.58.58,0,1,0,1.16,0v-.94a2.32,2.32,0,0,0-.58-4.57Z" fill="#fff"/><circle cx="100.27" cy="253.38" r="0.73" fill="#fff"/><path d="M100.27,242.4a7.43,7.43,0,1,0,7.43,7.42A7.43,7.43,0,0,0,100.27,242.4Zm0,13.69a6.27,6.27,0,1,1,6.27-6.27A6.27,6.27,0,0,1,100.27,256.09Z" fill="#fff"/><path d="M100.27,246.13A2.32,2.32,0,0,0,98,248.45a.58.58,0,0,0,1.16,0,1.16,1.16,0,1,1,1.16,1.16.58.58,0,0,0-.58.58v1.45a.58.58,0,0,0,1.16,0v-.95a2.32,2.32,0,0,0-.58-4.56Z" fill="#fff"/><circle cx="111.06" cy="31.49" r="0.73" fill="#fff"/><path d="M111.06,20.51a7.43,7.43,0,1,0,7.43,7.43A7.43,7.43,0,0,0,111.06,20.51Zm0,13.69a6.27,6.27,0,1,1,6.27-6.26A6.27,6.27,0,0,1,111.06,34.2Z" fill="#fff"/><path d="M111.06,24.24a2.32,2.32,0,0,0-2.32,2.32.58.58,0,0,0,1.16,0,1.16,1.16,0,1,1,1.16,1.16.58.58,0,0,0-.58.58v1.45a.58.58,0,0,0,1.16,0v-.94a2.32,2.32,0,0,0-.58-4.57Z" fill="#fff"/></svg>