<?xml version="1.0" encoding="utf-8"?>
<!-- Generator: Adobe Illustrator 24.0.0, SVG Export Plug-In . SVG Version: 6.00 Build 0)  -->
<svg version="1.1" id="Layer_1" xmlns="http://www.w3.org/2000/svg" xmlns:xlink="http://www.w3.org/1999/xlink" x="0px" y="0px"
	 viewBox="0 0 82.3 150" style="enable-background:new 0 0 82.3 150;" xml:space="preserve">
<style type="text/css">
	.st0{fill:#FFFFFF;}
	.st1{fill:none;}
</style>
<g>
	<path id="_x3C_content_x3E_" class="st0" d="M66.6,0H15.9C7.3,0,0,7,0,15.6v118.8C0,143,7.2,150,15.8,150l50.8-0.1
		c8.6,0,15.7-7,15.7-15.6l0.1-118.7C82.3,7,75.3,0,66.6,0z M34,9.4h14.7c1.3,0,2.4,1,2.4,2.4s-1,2.4-2.4,2.4H33.9
		c-1.3,0-2.4-1-2.4-2.4C31.6,10.4,32.6,9.4,34,9.4z M25.1,10.1c0.9-0.9,2.4-0.9,3.3,0c0.4,0.4,0.7,1,0.7,1.7c0,0.6-0.3,1.2-0.7,1.6
		c-0.4,0.4-1,0.7-1.6,0.7c-0.6,0-1.2-0.3-1.7-0.7c-0.4-0.4-0.7-1-0.7-1.6C24.4,11.2,24.7,10.5,25.1,10.1z M40.8,145.4
		c-3.9,0-7-3.2-7-7c0-3.9,3.2-7,7-7s7,3.2,7,7S44.7,145.4,40.8,145.4z M75,126.6H8.2V22.3H75V126.6L75,126.6z"/>
	<rect x="8.2" y="22.3" class="st1" width="66.8" height="104.3"/>
</g>
</svg>
