<svg xmlns="http://www.w3.org/2000/svg" viewBox="0 0 61.8 79.5"><defs><style>.cls-1{fill:#fff;}</style></defs><title>tabcoda_3</title><g id="Layer_2" data-name="Layer 2"><g id="Capa_1" data-name="Capa 1"><path class="cls-1" d="M0,0H34.54C52,0,59.86,6.44,59.86,19.31c0,9.12-3.86,16.2-10.94,18.35C57.61,39.8,61.8,46.35,61.8,57.5c0,16.1-9.55,22-28.11,22H0ZM34.76,34.44c13.09,0,16.52-6,16.52-14.06,0-8.26-4.72-12.66-16.52-12.66H8.26V34.44Zm-.22,37.44c12.88,0,18.78-4.4,18.78-15.13,0-10.08-5.79-14.59-19-14.59H8.26V71.88Z"/></g></g></svg>