<?xml version="1.0" encoding="utf-8"?>
<!-- Generator: Adobe Illustrator 24.0.0, SVG Export Plug-In . SVG Version: 6.00 Build 0)  -->
<svg version="1.1" id="Capa_1" xmlns="http://www.w3.org/2000/svg" xmlns:xlink="http://www.w3.org/1999/xlink" x="0px" y="0px"
	 viewBox="0 0 512 512" style="enable-background:new 0 0 512 512;" xml:space="preserve">
<style type="text/css">
	.st0{fill:#FFFFFF;}
</style>
<g>
	<path class="st0" d="M494.5,60.5H326.3c-4.1,0-7.5,3.4-7.5,7.5s3.4,7.5,7.5,7.5h168.2c1.4,0,2.5,1.1,2.5,2.5v45.5H15V78
		c0-1.4,1.1-2.5,2.5-2.5h274.3c4.1,0,7.5-3.4,7.5-7.5s-3.4-7.5-7.5-7.5H17.5C7.9,60.5,0,68.4,0,78v356c0,9.6,7.9,17.5,17.5,17.5
		h361.3c4.1,0,7.5-3.4,7.5-7.5s-3.4-7.5-7.5-7.5H17.5c-1.4,0-2.5-1.1-2.5-2.5V138.5h482V434c0,1.4-1.1,2.5-2.5,2.5h-81.2
		c-4.1,0-7.5,3.4-7.5,7.5s3.4,7.5,7.5,7.5h81.2c9.6,0,17.5-7.9,17.5-17.5V78C512,68.4,504.1,60.5,494.5,60.5z"/>
	<path class="st0" d="M47.4,92c-4.1,0-7.5,3.4-7.5,7.5s3.4,7.5,7.5,7.5h0.1c4.1,0,7.5-3.4,7.5-7.5S51.7,92,47.4,92L47.4,92z"/>
	<path class="st0" d="M70.1,92c-4.1,0-7.5,3.4-7.5,7.5s3.4,7.5,7.5,7.5h0.1c4.1,0,7.5-3.4,7.5-7.5S74.3,92,70.1,92L70.1,92z"/>
	<path class="st0" d="M92.7,92c-4.1,0-7.5,3.4-7.5,7.5s3.4,7.5,7.5,7.5h0.1c4.1,0,7.5-3.4,7.5-7.5S97,92,92.8,92H92.7z"/>
	<path class="st0" d="M464.6,107c4.1,0,7.5-3.4,7.5-7.5s-3.4-7.5-7.5-7.5h-14c-4.1,0-7.5,3.4-7.5,7.5s3.4,7.5,7.5,7.5H464.6z"/>
	<path class="st0" d="M209.2,182c0-9.6-7.9-17.5-17.5-17.5H63.5c-9.6,0-17.5,7.9-17.5,17.5v60.4c0,4.1,3.4,7.5,7.5,7.5
		s7.5-3.4,7.5-7.5V182c0-1.4,1.1-2.5,2.5-2.5h128.2c1.4,0,2.5,1.1,2.5,2.5v128.2c0,1.4-1.1,2.5-2.5,2.5H63.5c-1.4,0-2.5-1.1-2.5-2.5
		v-33.3c0-4.1-3.4-7.5-7.5-7.5s-7.5,3.4-7.5,7.5v33.3c0,9.6,7.9,17.5,17.5,17.5h128.2c9.6,0,17.5-7.9,17.5-17.5V182L209.2,182z"/>
	<path class="st0" d="M191.7,335.8H63.5c-9.6,0-17.5,7.9-17.5,17.5v41.3c0,9.6,7.9,17.5,17.5,17.5h128.2c9.6,0,17.5-7.9,17.5-17.5
		v-41.3C209.2,343.6,201.4,335.8,191.7,335.8z M194.2,394.6c0,1.4-1.1,2.5-2.5,2.5H63.5c-1.4,0-2.5-1.1-2.5-2.5v-41.3
		c0-1.4,1.1-2.5,2.5-2.5h128.2c1.4,0,2.5,1.1,2.5,2.5V394.6L194.2,394.6z"/>
	<path id="_x3C_Vacio_x3E_" class="st0" d="M235.9,164.5c-9.6,0-17.5,7.9-17.5,17.5v212.6c0,9.6,7.9,17.5,17.5,17.5h63.2
		c9.6,0,17.5-7.9,17.5-17.5V182c0-9.6-7.9-17.5-17.5-17.5H235.9z M301.6,182v212.6c0,1.4-1.1,2.5-2.5,2.5h-63.2
		c-1.4,0-2.5-1.1-2.5-2.5V182c0-1.4,1.1-2.5,2.5-2.5h63.2C300.4,179.5,301.6,180.7,301.6,182z"/>
	<path class="st0" d="M342.6,232.5h95.8c9.6,0,17.5-7.9,17.5-17.5v-33c0-9.6-7.9-17.5-17.5-17.5h-95.8c-9.6,0-17.5,7.9-17.5,17.5v33
		C325.1,224.6,333,232.5,342.6,232.5z M340.1,182c0-1.4,1.1-2.5,2.5-2.5h95.8c1.4,0,2.5,1.1,2.5,2.5v33c0,1.4-1.1,2.5-2.5,2.5h-95.8
		c-1.4,0-2.5-1.1-2.5-2.5L340.1,182L340.1,182z"/>
	<path class="st0" d="M325.1,394.6c0,9.6,7.9,17.5,17.5,17.5h95.8c9.6,0,17.5-7.9,17.5-17.5V258.3c0-9.6-7.9-17.5-17.5-17.5h-95.8
		c-9.6,0-17.5,7.9-17.5,17.5L325.1,394.6L325.1,394.6z M340.1,258.3c0-1.4,1.1-2.5,2.5-2.5h95.8c1.4,0,2.5,1.1,2.5,2.5v136.3
		c0,1.4-1.1,2.5-2.5,2.5h-95.8c-1.4,0-2.5-1.1-2.5-2.5L340.1,258.3L340.1,258.3z"/>
</g>
</svg>
