<svg xmlns="http://www.w3.org/2000/svg" viewBox="0 0 532 128.76"><title>work_flow</title><circle cx="46.94" cy="46.94" r="46.94" fill="#20fc00"/><circle cx="192.98" cy="46.94" r="46.94" fill="#20fc00"/><circle cx="340.02" cy="46.94" r="46.94" fill="#20fc00"/><circle cx="485.06" cy="46.94" r="46.94" fill="#20fc00"/><text transform="translate(3.27 111.68)" font-size="12" font-family="EffraLight-Regular, Effra Light">Cuéntanos <tspan x="58.3" y="0" letter-spacing="-0.01em">t</tspan><tspan x="62.44" y="0">u </tspan><tspan x="0" y="14.4">visión y objeti</tspan><tspan x="67.06" y="14.4" letter-spacing="-0.03em">v</tspan><tspan x="72.31" y="14.4">os</tspan></text><text transform="translate(148.69 111.68)" font-size="12" font-family="EffraLight-Regular, Effra Light">Anali<tspan x="24.36" y="0" letter-spacing="-0.02em">z</tspan><tspan x="29.89" y="0">aremos </tspan><tspan x="70.92" y="0" letter-spacing="-0.01em">t</tspan><tspan x="75.06" y="0">u </tspan><tspan x="0" y="14.4">p</tspan><tspan x="6.46" y="14.4" letter-spacing="-0.05em">r</tspan><tspan x="9.96" y="14.4" letter-spacing="-0.03em">o</tspan><tspan x="16.37" y="14.4">yec</tspan><tspan x="34.26" y="14.4" letter-spacing="-0.02em">t</tspan><tspan x="38.22" y="14.4" xml:space="preserve">o a  </tspan><tspan x="57.43" y="14.4" letter-spacing="-0.03em">f</tspan><tspan x="60.85" y="14.4">ondo</tspan></text><text transform="translate(294.12 111.68)" font-size="12" font-family="EffraLight-Regular, Effra Light">Recibe una p<tspan x="64.03" y="0" letter-spacing="-0.05em">r</tspan><tspan x="67.54" y="0">opuesta </tspan><tspan x="0" y="14.4" xml:space="preserve">y  analisis de </tspan><tspan x="63.08" y="14.4" letter-spacing="-0.01em">t</tspan><tspan x="67.22" y="14.4">u idea</tspan></text><text transform="translate(454.54 118.88)" font-size="12" font-family="EffraLight-Regular, Effra Light"><tspan letter-spacing="-0.02em">C</tspan><tspan x="7.82" y="0">omencemos!</tspan></text><path d="M41,69.83l4-1.08,4,1.08v.34a4,4,0,0,1-8,0Z" fill="#60b7ff"/><path d="M48,69.83H41a1.43,1.43,0,0,1-1.43-1.42v-9.5L45,57.83l4.37,1.08v9.5A1.43,1.43,0,0,1,48,69.83Z" fill="#c4e2ff"/><path d="M47.54,58.45v10a1.42,1.42,0,0,1-1.42,1.42h2.93a1.43,1.43,0,0,0,1.43-1.42v-9.5Z" fill="#8ac9fe"/><path d="M58.06,41c0-7.73-5.14-14-12.85-14.11A14.22,14.22,0,0,0,30.92,41a14.07,14.07,0,0,0,4.7,10.51,12.34,12.34,0,0,1,3.91,7.19l0,.18H50.48l0-.16c.47-2.81.82-5.36,2.93-7.28A14.1,14.1,0,0,0,58.06,41Z" fill="#fed402"/><path d="M45.21,26.92a14.7,14.7,0,0,0-1.63.08,14.11,14.11,0,0,1,8,24.47,12.7,12.7,0,0,0-4,7.28l0,.16h2.94l0-.16a12.69,12.69,0,0,1,4-7.28,14.11,14.11,0,0,0-9.31-24.55Z" fill="#fac600"/><path d="M54.56,42.22V39.85A.55.55,0,0,0,54,39.3H51.79A7.15,7.15,0,0,0,51,37.48l1.58-1.58a.55.55,0,0,0,0-.77l-1.67-1.67a.53.53,0,0,0-.77,0L48.59,35a6.68,6.68,0,0,0-1.83-.76V32a.54.54,0,0,0-.54-.54H43.85a.54.54,0,0,0-.54.54v2.24a6.56,6.56,0,0,0-1.83.76L39.9,33.46a.53.53,0,0,0-.77,0l-1.67,1.67a.55.55,0,0,0,0,.77L39,37.48a6.8,6.8,0,0,0-.76,1.82H36.05a.55.55,0,0,0-.55.55v2.37a.55.55,0,0,0,.55.54h2.23A6.8,6.8,0,0,0,39,44.58l-1.58,1.58a.55.55,0,0,0,0,.77l1.67,1.68a.55.55,0,0,0,.77,0L41.48,47a6.85,6.85,0,0,0,1.83.75V50a.54.54,0,0,0,.54.54h2.37a.54.54,0,0,0,.54-.54V47.78A7,7,0,0,0,48.59,47l1.58,1.58a.55.55,0,0,0,.77,0l1.67-1.68a.55.55,0,0,0,0-.77L51,44.58a7.15,7.15,0,0,0,.76-1.82H54a.54.54,0,0,0,.54-.54ZM45,44.4A3.37,3.37,0,1,1,48.4,41,3.36,3.36,0,0,1,45,44.4Z" fill="#efedef"/><path d="M45,24.6a.82.82,0,0,0,.82-.82V20.12a.82.82,0,0,0-.82-.81.81.81,0,0,0-.81.81v3.66A.82.82,0,0,0,45,24.6Z"/><path d="M59.24,25.67l-2.59,2.59a.81.81,0,0,0,0,1.15.82.82,0,0,0,1.16,0l2.58-2.59a.81.81,0,0,0-1.15-1.15Z"/><path d="M32.26,52.65l-2.59,2.59a.83.83,0,0,0,0,1.15.82.82,0,0,0,1.16,0l2.59-2.59a.82.82,0,1,0-1.16-1.15Z"/><path d="M32.26,29.41a.82.82,0,0,0,1.16,0,.83.83,0,0,0,0-1.15l-2.59-2.59a.82.82,0,1,0-1.16,1.15Z"/><path d="M57.81,52.65a.82.82,0,0,0-1.16,0,.81.81,0,0,0,0,1.15l2.59,2.59a.82.82,0,0,0,.58.24.8.8,0,0,0,.57-.24.81.81,0,0,0,0-1.15Z"/><path d="M27.79,40.21H24.13a.82.82,0,1,0,0,1.64h3.66a.82.82,0,0,0,0-1.64Z"/><path d="M65.94,40.21H62.28a.82.82,0,0,0,0,1.64h3.66a.82.82,0,0,0,0-1.64Z"/><path d="M51.59,63.37a.82.82,0,0,0,.82-.82.82.82,0,0,0-.82-.81H51.3V58.89A11.87,11.87,0,0,1,52.2,56a.81.81,0,0,0-1.48-.68,13.22,13.22,0,0,0-.92,2.79H40.24a13.23,13.23,0,0,0-4.08-7.17,13.25,13.25,0,0,1-4.34-8.44.83.83,0,0,0-.9-.73.81.81,0,0,0-.72.9,14.91,14.91,0,0,0,4.87,9.48,11.63,11.63,0,0,1,3.66,6.72l0,.12v2.76h-.27a.82.82,0,0,0-.82.81.82.82,0,0,0,.82.82h.27v2h-.27a.82.82,0,0,0-.82.81.82.82,0,0,0,.82.82h.27v1.4a2.24,2.24,0,0,0,1.47,2.1,4.78,4.78,0,0,0,2.66,4,.8.8,0,0,0,.36.09A.82.82,0,0,0,43.61,73a3.17,3.17,0,0,1-1.74-2.37h6.3A3.16,3.16,0,0,1,46.44,73a.82.82,0,0,0,.36,1.55.8.8,0,0,0,.36-.09,4.76,4.76,0,0,0,2.66-4,2.25,2.25,0,0,0,1.48-2.1V67h.29a.82.82,0,0,0,.82-.82.82.82,0,0,0-.82-.81H51.3v-2ZM40.38,59.73h9.28v2H40.38Zm9.28,8.68a.61.61,0,0,1-.61.61H41a.61.61,0,0,1-.61-.61V67h9.28Zm0-3H40.38v-2h9.28Z"/><path d="M45,45.21A4.18,4.18,0,1,0,40.85,41,4.19,4.19,0,0,0,45,45.21Zm0-6.73A2.55,2.55,0,1,1,42.48,41,2.56,2.56,0,0,1,45,38.48Z"/><path d="M36.05,38.49a1.36,1.36,0,0,0-1.36,1.36v2.36a1.36,1.36,0,0,0,1.36,1.36h1.63a8.31,8.31,0,0,0,.35.87l-1.15,1.15a1.36,1.36,0,0,0,0,1.92l1.68,1.67a1.36,1.36,0,0,0,1.92,0L41.63,48a7.12,7.12,0,0,0,.86.36V50a1.36,1.36,0,0,0,1.36,1.36h2.37A1.36,1.36,0,0,0,47.58,50V48.39a7.12,7.12,0,0,0,.86-.36l1.15,1.15a1.35,1.35,0,0,0,1,.4,1.33,1.33,0,0,0,1-.4l1.68-1.67a1.36,1.36,0,0,0,0-1.92L52,44.44a8.31,8.31,0,0,0,.35-.87H54a1.36,1.36,0,0,0,1.36-1.36V39.85A1.36,1.36,0,0,0,54,38.49H52.39a8.14,8.14,0,0,0-.35-.86l1.15-1.16a1.36,1.36,0,0,0,0-1.92l-1.68-1.67a1.33,1.33,0,0,0-1-.4,1.35,1.35,0,0,0-1,.4L48.44,34a7.12,7.12,0,0,0-.86-.36V32a1.36,1.36,0,0,0-1.36-1.36H43.85A1.36,1.36,0,0,0,42.49,32v1.63a7.12,7.12,0,0,0-.86.36l-1.15-1.15a1.36,1.36,0,0,0-1.92,0l-1.68,1.67a1.36,1.36,0,0,0,0,1.92L38,37.63c-.13.28-.25.56-.36.86Zm3.56-1.59-1.38-1.39,1.29-1.29,1.38,1.39a.83.83,0,0,0,1,.13,5.84,5.84,0,0,1,1.61-.67.81.81,0,0,0,.61-.79v-2H46v2a.81.81,0,0,0,.61.79,6,6,0,0,1,1.61.67.82.82,0,0,0,1-.13l1.39-1.39,1.29,1.29L50.45,36.9a.82.82,0,0,0-.12,1A6.46,6.46,0,0,1,51,39.5a.8.8,0,0,0,.79.62h2v1.82h-2a.81.81,0,0,0-.79.62,6.46,6.46,0,0,1-.67,1.61.82.82,0,0,0,.12,1l1.39,1.39-1.29,1.29-1.39-1.39a.82.82,0,0,0-1-.12,6.13,6.13,0,0,1-1.61.66.82.82,0,0,0-.61.79v2H44.12v-2a.82.82,0,0,0-.61-.79,6.13,6.13,0,0,1-1.61-.66.83.83,0,0,0-1,.12l-1.38,1.39-1.29-1.29,1.38-1.39a.8.8,0,0,0,.13-1,6.46,6.46,0,0,1-.67-1.61.82.82,0,0,0-.79-.62h-2V40.12h2a.81.81,0,0,0,.79-.62,6.46,6.46,0,0,1,.67-1.61.8.8,0,0,0-.13-1Z"/><path d="M55.65,30.54a15,15,0,0,0-25.42,8.61.81.81,0,0,0,.7.91.82.82,0,0,0,.92-.7A13.29,13.29,0,1,1,54,50.87a11.81,11.81,0,0,0-1.21,1.24.82.82,0,0,0,.09,1.15A.83.83,0,0,0,54,53.17a13.76,13.76,0,0,1,1.06-1.1,14.91,14.91,0,0,0,.58-21.53Z"/><path d="M171.21,41.23a12.7,12.7,0,0,0,2,6.77c.47.73,1,1.42,1.48,2.09a18.69,18.69,0,0,1,2.23,3.52A13.91,13.91,0,0,1,178,60.84a27.7,27.7,0,0,1-1,4.86,16.53,16.53,0,0,1-.93,2.36,5.42,5.42,0,0,1-.6.9,5.79,5.79,0,0,0-.92,1.6.83.83,0,0,0,.12.73.83.83,0,0,0,.66.34h20.81A.82.82,0,0,0,197,71c.31-1.24,1.47-4.55,3.32-5.64a67.63,67.63,0,0,0,6.95,2.08,3,3,0,0,0,3.58-2.18,4.75,4.75,0,0,0,.28-2.21c0-.22-.08-.43-.12-.65a2.12,2.12,0,0,1-.09-1c.06-.25.25-.38.73-.66a5.58,5.58,0,0,0,.58-.35,1.2,1.2,0,0,0,.49-.8,2.05,2.05,0,0,0-.27-1.19l.76-.61c.76-.64.26-1.54-.05-2.07-.11-.19-.23-.42-.35-.68a1.28,1.28,0,0,1-.09-.82c0-.22.63-.52,1-.7a5.57,5.57,0,0,0,.85-.5,2.52,2.52,0,0,0,1.2-1.53,3.46,3.46,0,0,0-1.09-2.42,32.35,32.35,0,0,1-3.6-5.86,1.51,1.51,0,0,1-.14-.35c0-.24.26-.5.67-.87a3.16,3.16,0,0,0,1.2-1.83,2.87,2.87,0,0,0-.22-1.39c-.15-.39-.32-.77-.49-1.15a10.44,10.44,0,0,1-.7-1.86l-.07-.3a23.16,23.16,0,0,0-.74-2.68,15.74,15.74,0,0,0-3.3-5.38c-1.84-1.93-4.54-3.24-8.25-4a54.68,54.68,0,0,0-8-1.13C186,22,181.63,23.53,177,27.17a13.64,13.64,0,0,0-4.92,7.07A24.63,24.63,0,0,0,171.21,41.23Z" fill="#273962"/><path d="M214.11,51.26a3.72,3.72,0,0,1-.49.4,4.14,4.14,0,0,1-.68.39c-.7.36-1.67.85-1.86,1.86a3.06,3.06,0,0,0,.22,1.84c.14.3.29.56.41.78l.13.24c-.33.27-.8.62-1,.76a.84.84,0,0,0-.33.55.8.8,0,0,0,.17.62,2.67,2.67,0,0,1,.31.51,1,1,0,0,1-.17.1A2.74,2.74,0,0,0,209.3,61a3.62,3.62,0,0,0,.08,1.76c0,.17.07.34.1.51a3.26,3.26,0,0,1-.2,1.45,1.46,1.46,0,0,1-1.7,1.1,67.58,67.58,0,0,1-7.07-2.13h0L198.39,63c-.63-.23-1.12-.4-1.36-.47-3.42-1.08-4.11-2.31-4.09-3.16a.83.83,0,0,0-1.65,0c0,2.06,1.72,3.66,5.25,4.77l1.31.45.61.21a13.22,13.22,0,0,0-2.9,5.26H176.81l0,0a7.63,7.63,0,0,0,.75-1.16,17.41,17.41,0,0,0,1-2.59,28.24,28.24,0,0,0,1-5.16,15.56,15.56,0,0,0-1.2-8.08A19.88,19.88,0,0,0,176,49.11c-.48-.65-1-1.32-1.41-2a11.06,11.06,0,0,1-1.75-5.91,23.16,23.16,0,0,1,.79-6.52A12,12,0,0,1,178,28.46c4.31-3.38,8.31-4.77,13-4.54A53.18,53.18,0,0,1,198.69,25c3.36.67,5.78,1.82,7.37,3.51A13.76,13.76,0,0,1,209,33.36a21,21,0,0,1,.69,2.47l.07.3a11,11,0,0,0,.8,2.16c.15.35.31.7.45,1.06a1.44,1.44,0,0,1,.13.58c0,.25-.35.54-.68.85a2.84,2.84,0,0,0-1.21,2.06,2.3,2.3,0,0,0,.32,1.11,33.41,33.41,0,0,0,3.76,6.12C214,50.84,214.11,51.14,214.11,51.26Z" fill="#ddecf8"/><path d="M175.56,36.24a11.41,11.41,0,0,0,0,4.12.81.81,0,0,0,.81.67h1.7a9.47,9.47,0,0,0,.77,1.86l-1.21,1.21a.82.82,0,0,0-.09,1,11.66,11.66,0,0,0,2.91,2.91.83.83,0,0,0,1.06-.09l1.2-1.21a9.73,9.73,0,0,0,1.86.77v1.71a.83.83,0,0,0,.68.81,11.88,11.88,0,0,0,4.12,0,.83.83,0,0,0,.68-.81V47.53a9.64,9.64,0,0,0,1.85-.77L193.11,48a.82.82,0,0,0,1,.09,11.5,11.5,0,0,0,2.91-2.91.82.82,0,0,0-.09-1l-1.21-1.21a8.9,8.9,0,0,0,.77-1.86h1.71a.81.81,0,0,0,.81-.67,11.88,11.88,0,0,0,0-4.12.82.82,0,0,0-.81-.68h-1.71a8.9,8.9,0,0,0-.77-1.86L197,32.5a.83.83,0,0,0,.09-1.06,11.66,11.66,0,0,0-2.91-2.91.82.82,0,0,0-1,.09l-1.21,1.21a9.64,9.64,0,0,0-1.85-.77V27.35a.84.84,0,0,0-.68-.81,11.88,11.88,0,0,0-4.12,0,.84.84,0,0,0-.68.81v1.71a9.73,9.73,0,0,0-1.86.77l-1.2-1.21a.83.83,0,0,0-1.06-.09,11.83,11.83,0,0,0-2.91,2.91.83.83,0,0,0,.09,1.06l1.21,1.2a9.47,9.47,0,0,0-.77,1.86h-1.7A.82.82,0,0,0,175.56,36.24Z" fill="#273962"/><path d="M197.59,38.3a9.94,9.94,0,0,1-.05,1.09H195.9a.82.82,0,0,0-.8.64,7.82,7.82,0,0,1-1,2.55.8.8,0,0,0,.11,1l1.15,1.16a9.75,9.75,0,0,1-1.54,1.54l-1.16-1.15a.8.8,0,0,0-1-.11,7.85,7.85,0,0,1-2.54,1.05.82.82,0,0,0-.65.8v1.63a9.93,9.93,0,0,1-2.18,0V46.89a.82.82,0,0,0-.65-.8A7.85,7.85,0,0,1,183,45a.82.82,0,0,0-1,.11l-1.15,1.15a10.26,10.26,0,0,1-1.55-1.54l1.16-1.16a.82.82,0,0,0,.11-1A7.84,7.84,0,0,1,179.51,40a.82.82,0,0,0-.8-.64h-1.63a10,10,0,0,1,0-2.19h1.63a.81.81,0,0,0,.8-.64A7.88,7.88,0,0,1,180.57,34a.83.83,0,0,0-.11-1l-1.16-1.15a10.33,10.33,0,0,1,1.55-1.55L182,31.45a.83.83,0,0,0,1,.11,7.88,7.88,0,0,1,2.54-1.06.81.81,0,0,0,.65-.8V28.07a9.93,9.93,0,0,1,2.18,0V29.7a.81.81,0,0,0,.65.8,7.88,7.88,0,0,1,2.54,1.06.82.82,0,0,0,1-.11l1.16-1.16a9.81,9.81,0,0,1,1.54,1.55L194.16,33a.82.82,0,0,0-.11,1,7.85,7.85,0,0,1,1,2.54.81.81,0,0,0,.8.64h1.64A10.12,10.12,0,0,1,197.59,38.3Z" fill="#44c7f4"/><path d="M182,38.3A5.35,5.35,0,1,0,187.31,33,5.35,5.35,0,0,0,182,38.3Zm1.64,0a3.71,3.71,0,1,1,3.71,3.7A3.71,3.71,0,0,1,183.6,38.3Z" fill="#273962"/><path d="M344.63,60.33H327.3a4.15,4.15,0,0,1-4.15-4.15V32.82a4.15,4.15,0,0,1,4.15-4.14h17.33a4.15,4.15,0,0,1,4.14,4.14V56.18a4.15,4.15,0,0,1-4.14,4.15Z" fill="#1976d2"/><path d="M352.48,64.79h-16.8a4,4,0,0,1-4-4V39.59a4,4,0,0,1,4-4h16.8a4,4,0,0,1,4,4V60.77A4,4,0,0,1,352.48,64.79Z" fill="#eceff1"/><path d="M350.16,55.05H338a1.22,1.22,0,0,1,0-2.43h12.17a1.22,1.22,0,1,1,0,2.43Z"/><path d="M350.16,61.54H338a1.22,1.22,0,0,1,0-2.43h12.17a1.22,1.22,0,1,1,0,2.43Z"/><path d="M350.16,49.37H338a1.22,1.22,0,0,1,0-2.43h12.17a1.22,1.22,0,1,1,0,2.43Z"/><path d="M350.16,42.88H338a1.22,1.22,0,0,1,0-2.43h12.17a1.22,1.22,0,1,1,0,2.43Z"/><path d="M326.63,61.54a4.46,4.46,0,0,1-4.46-4.46V31.93a4.47,4.47,0,0,1,4.46-4.47H345.3a4.45,4.45,0,0,1,3.85,2.24A1.22,1.22,0,0,1,347,30.9a2,2,0,0,0-1.73-1H326.63a2,2,0,0,0-2,2V57.08a2,2,0,0,0,2,2,1.22,1.22,0,1,1,0,2.43Z"/><path d="M353.41,66.41H334.75A4.47,4.47,0,0,1,330.28,62V38.42A4.47,4.47,0,0,1,334.75,34h18.66a4.47,4.47,0,0,1,4.46,4.47V62A4.46,4.46,0,0,1,353.41,66.41Zm-18.66-30a2,2,0,0,0-2,2V62a2,2,0,0,0,2,2h18.66a2,2,0,0,0,2-2V38.42a2,2,0,0,0-2-2Z"/><path d="M508,23.53a42,42,0,0,1-2.31,11.14l-8.84-8.83A41.61,41.61,0,0,1,508,23.53Z" fill="#ff5249"/><path d="M496.81,25.84l8.84,8.83a31.4,31.4,0,0,1-7.11,11.74A37.29,37.29,0,0,1,487.33,54l-9.88-9.88a37.41,37.41,0,0,1,5.1-8.39A35,35,0,0,1,485.08,33,31,31,0,0,1,496.81,25.84Z" fill="#fff"/><path d="M497.19,34.29a3.81,3.81,0,1,1-5.38,0A3.81,3.81,0,0,1,497.19,34.29Z" fill="#7bd8e8"/><path d="M495.85,49.1c4.9,7.35-4.28,12.11-9.42,12.11a7.06,7.06,0,0,0,1.9-6.17l-1-1a38.63,38.63,0,0,0,8.39-5.1Z" fill="#ff5249"/><path d="M476.34,51.13l-.15-.16a1.85,1.85,0,0,1-.52-1.74,33,33,0,0,1,1.78-5.07L487.33,54a33,33,0,0,1-5.08,1.77,1.86,1.86,0,0,1-1.74-.51l-.15-.16Z" fill="#ff5249"/><path d="M482.39,35.64l.16.13a37.41,37.41,0,0,0-5.1,8.39l-1-1a7.09,7.09,0,0,0-6.17,1.91C470.28,39.92,475,30.74,482.39,35.64Z" fill="#ff5249"/><path d="M476.34,51.13l4,4a7.52,7.52,0,0,1-2,3.38c-2.23,2.23-8.07,2.69-8.07,2.69s.46-5.85,2.69-8.08A7.5,7.5,0,0,1,476.34,51.13Z" fill="#ffdd78"/><path d="M485.78,47.08a1,1,0,1,0-1.35,0A1,1,0,0,0,485.78,47.08Z"/><path d="M497.89,40.35a4.76,4.76,0,1,0-6.73,0A4.76,4.76,0,0,0,497.89,40.35ZM492.5,35a2.85,2.85,0,1,1,0,4A2.85,2.85,0,0,1,492.5,35Z"/><path d="M469.94,45.94a.89.89,0,0,0,.36.07,1,1,0,0,0,.67-.28A6.07,6.07,0,0,1,476,44l.34.34A33.24,33.24,0,0,0,474.77,49a2.67,2.67,0,0,0,.12,1.65,8.91,8.91,0,0,0-2.57,1.81c-2.45,2.45-2.95,8.42-3,8.67a1,1,0,0,0,.28.75,1,1,0,0,0,.67.28h.08c.25,0,6.22-.52,8.67-3a8.91,8.91,0,0,0,1.81-2.57,2.7,2.7,0,0,0,1.65.12,33.24,33.24,0,0,0,4.62-1.58l.34.34a6.07,6.07,0,0,1-1.69,5,.92.92,0,0,0-.21,1,1,1,0,0,0,.88.59c3.77,0,9-2.24,11-5.87a7,7,0,0,0-.41-7.17c.77-.65,1.52-1.34,2.22-2A31.85,31.85,0,0,0,506.57,35a42.31,42.31,0,0,0,2.36-11.43,1,1,0,0,0-1-1,42.31,42.31,0,0,0-11.43,2.36,31.85,31.85,0,0,0-12.09,7.34c-.7.7-1.39,1.45-2,2.22a7,7,0,0,0-7.17-.41c-3.63,1.94-5.87,7.2-5.87,11A1,1,0,0,0,469.94,45.94Zm7.76,11.9c-1.31,1.31-4.38,2-6.32,2.29.29-1.94,1-5,2.28-6.32a6.83,6.83,0,0,1,2.44-1.6l3.2,3.2A6.84,6.84,0,0,1,477.7,57.84Zm4.34-3a.88.88,0,0,1-.83-.27l-4.32-4.32a.89.89,0,0,1-.27-.83,29,29,0,0,1,1.19-3.63l7.86,7.86A29,29,0,0,1,482,54.89Zm13.7.51c-1.24,2.33-4.38,4-7.24,4.63a8.11,8.11,0,0,0,.78-5.22,1,1,0,0,0-.29-.48,38.67,38.67,0,0,0,6.51-4A5.06,5.06,0,0,1,495.74,55.4Zm9.51-22.49-6.65-6.65a42.36,42.36,0,0,1,8.35-1.7A42.36,42.36,0,0,1,505.25,32.91Zm-19.47.71a29.7,29.7,0,0,1,10.81-6.68l8,8a29.7,29.7,0,0,1-6.68,10.81,34.26,34.26,0,0,1-2.75,2.47,36.66,36.66,0,0,1-7.58,4.7L478.61,44a36.66,36.66,0,0,1,4.7-7.58A34.26,34.26,0,0,1,485.78,33.62Zm-9.67,2.15a5.06,5.06,0,0,1,5.07.24,38.67,38.67,0,0,0-4,6.51.94.94,0,0,0-.5-.29,8.15,8.15,0,0,0-5.2.78C472.07,40.15,473.78,37,476.11,35.77Z"/><path d="M480.39,65.92l2.7-2.69a1,1,0,0,0-1.35-1.35l-2.69,2.69a1,1,0,0,0,0,1.35A1,1,0,0,0,480.39,65.92Z"/><path d="M466.94,52.46l2.69-2.69a1,1,0,1,0-1.35-1.35l-2.69,2.7a1,1,0,0,0,0,1.34A1,1,0,0,0,466.94,52.46Z"/><path d="M475,63.23l-6.44,6.44A1,1,0,0,0,469.91,71l6.45-6.45a1,1,0,0,0,0-1.34A1,1,0,0,0,475,63.23Z"/><path d="M467.4,63.23,461,69.67A1,1,0,0,0,462.3,71l6.44-6.45a.93.93,0,0,0,0-1.34A1,1,0,0,0,467.4,63.23Z"/><path d="M461.84,62.94l6.44-6.44a1,1,0,0,0,0-1.35,1,1,0,0,0-1.34,0l-6.45,6.45a1,1,0,1,0,1.35,1.34Z"/><path d="M488.47,44.39,489.81,43a.95.95,0,0,0-1.34-1.34L487.12,43a1,1,0,1,0,1.35,1.35Z"/><rect x="83.35" y="40.36" width="70.59" height="13.15" fill="#20fc00"/><rect x="228.19" y="40.36" width="70.59" height="13.15" fill="#20fc00"/><rect x="380.66" y="40.36" width="70.59" height="13.15" fill="#20fc00"/></svg>