<svg xmlns="http://www.w3.org/2000/svg" viewBox="0 0 421.75 102.07"><title>work_flow_2</title><circle cx="37.21" cy="37.21" r="37.21" fill="#20fc00"/><circle cx="152.99" cy="37.21" r="37.21" fill="#20fc00"/><circle cx="269.56" cy="37.21" r="37.21" fill="#20fc00"/><circle cx="384.54" cy="37.21" r="37.21" fill="#20fc00"/><text transform="translate(2.59 88.54)" font-size="9.51" fill="#fff" font-family="EffraLight-Regular, Effra Light">Cuéntanos <tspan x="46.21" y="0" letter-spacing="-0.01em">t</tspan><tspan x="49.5" y="0">u </tspan><tspan x="0" y="11.42">visión y objeti</tspan><tspan x="53.16" y="11.42" letter-spacing="-0.03em">v</tspan><tspan x="57.33" y="11.42" letter-spacing="0em">os</tspan></text><text transform="translate(117.88 88.53)" font-size="9.51" fill="#fff" font-family="EffraLight-Regular, Effra Light">Anali<tspan x="19.31" y="0" letter-spacing="-0.02em">z</tspan><tspan x="23.7" y="0">aremos </tspan><tspan x="56.22" y="0" letter-spacing="-0.01em">t</tspan><tspan x="59.5" y="0">u </tspan><tspan x="0" y="11.42">p</tspan><tspan x="5.12" y="11.42" letter-spacing="-0.05em">r</tspan><tspan x="7.9" y="11.42" letter-spacing="-0.03em">o</tspan><tspan x="12.98" y="11.42">yec</tspan><tspan x="27.16" y="11.42" letter-spacing="-0.02em">t</tspan><tspan x="30.3" y="11.42" xml:space="preserve">o a  </tspan><tspan x="45.53" y="11.42" letter-spacing="-0.03em">f</tspan><tspan x="48.24" y="11.42">ondo</tspan></text><text transform="translate(233.17 88.53)" font-size="9.51" fill="#fff" font-family="EffraLight-Regular, Effra Light">Recibe una p<tspan x="50.76" y="0" letter-spacing="-0.05em">r</tspan><tspan x="53.54" y="0">opuesta </tspan><tspan x="0" y="11.42" xml:space="preserve">y  análisis de </tspan><tspan x="50.01" y="11.42" letter-spacing="-0.01em">t</tspan><tspan x="53.29" y="11.42">u idea</tspan></text><text transform="translate(360.34 94.24)" font-size="9.51" fill="#fff" font-family="EffraLight-Regular, Effra Light"><tspan letter-spacing="-0.02em">C</tspan><tspan x="6.2" y="0">omencemos!</tspan></text><path d="M32.52,55.36l3.17-.86,3.17.86v.27a3.17,3.17,0,1,1-6.34,0Z" fill="#60b7ff"/><path d="M38,55.36H32.49a1.14,1.14,0,0,1-1.13-1.13V46.7l4.33-.86,3.47.86v7.53A1.14,1.14,0,0,1,38,55.36Z" fill="#c4e2ff"/><path d="M37.69,46.34v7.89a1.13,1.13,0,0,1-1.13,1.13h2.33A1.14,1.14,0,0,0,40,54.23V46.7Z" fill="#8ac9fe"/><path d="M46,32.53C46,26.4,42,21.42,35.84,21.34A11.27,11.27,0,0,0,24.52,32.53a11.14,11.14,0,0,0,3.72,8.33,9.83,9.83,0,0,1,3.1,5.7l0,.14H40l0-.12c.37-2.23.65-4.25,2.32-5.78A11.13,11.13,0,0,0,46,32.53Z" fill="#fed402"/><path d="M35.84,21.34c-.43,0-.87,0-1.29.06A11.19,11.19,0,0,1,40.9,40.8a10.12,10.12,0,0,0-3.19,5.78l0,.12H40l0-.12a10.1,10.1,0,0,1,3.18-5.78,11.18,11.18,0,0,0-7.38-19.46Z" fill="#fac600"/><path d="M43.26,33.47V31.59a.43.43,0,0,0-.43-.43H41.05a5.29,5.29,0,0,0-.6-1.45l1.26-1.25a.43.43,0,0,0,0-.61l-1.33-1.33a.43.43,0,0,0-.61,0l-1.25,1.25a6,6,0,0,0-1.45-.6V25.4a.43.43,0,0,0-.43-.43H34.76a.43.43,0,0,0-.43.43v1.77a6.16,6.16,0,0,0-1.45.6l-1.25-1.25a.43.43,0,0,0-.61,0L29.7,27.85a.43.43,0,0,0,0,.61L31,29.71a5.29,5.29,0,0,0-.6,1.45H28.58a.43.43,0,0,0-.43.43v1.88a.43.43,0,0,0,.43.43h1.77a5.22,5.22,0,0,0,.6,1.44L29.7,36.6a.43.43,0,0,0,0,.61L31,38.53a.43.43,0,0,0,.61,0l1.25-1.25a5.42,5.42,0,0,0,1.45.6v1.77a.43.43,0,0,0,.43.43h1.88a.43.43,0,0,0,.43-.43V37.88a5.29,5.29,0,0,0,1.45-.6l1.25,1.25a.43.43,0,0,0,.61,0l1.33-1.32a.43.43,0,0,0,0-.61l-1.26-1.26a5.22,5.22,0,0,0,.6-1.44h1.78a.44.44,0,0,0,.43-.43ZM35.7,35.2a2.67,2.67,0,1,1,2.67-2.67A2.68,2.68,0,0,1,35.7,35.2Z" fill="#efedef"/><path d="M35.7,19.5a.65.65,0,0,0,.65-.64V16a.65.65,0,0,0-1.3,0v2.91A.65.65,0,0,0,35.7,19.5Z"/><path d="M47,20.35l-2.05,2a.66.66,0,0,0,0,.92.68.68,0,0,0,.46.19.7.7,0,0,0,.46-.19l2.05-2.06a.65.65,0,0,0,0-.91.66.66,0,0,0-.92,0Z"/><path d="M25.58,41.74l-2.06,2a.65.65,0,0,0,.46,1.1.63.63,0,0,0,.46-.19l2-2.05a.64.64,0,0,0-.91-.91Z"/><path d="M25.58,23.32a.65.65,0,0,0,.45.19.68.68,0,0,0,.46-.19.66.66,0,0,0,0-.92l-2-2a.66.66,0,0,0-.92,0,.65.65,0,0,0,0,.91Z"/><path d="M45.83,41.74a.66.66,0,0,0-.92,0,.65.65,0,0,0,0,.91L47,44.7a.65.65,0,0,0,.46.19.63.63,0,0,0,.46-.19.65.65,0,0,0,0-.91Z"/><path d="M22,31.88h-2.9a.65.65,0,1,0,0,1.29H22a.65.65,0,1,0,0-1.29Z"/><path d="M52.28,31.88H49.37a.65.65,0,0,0,0,1.29h2.91a.65.65,0,0,0,0-1.29Z"/><path d="M40.9,50.24a.65.65,0,1,0,0-1.3h-.23V46.68a9.19,9.19,0,0,1,.7-2.29.64.64,0,1,0-1.17-.54,10.23,10.23,0,0,0-.73,2.21H31.9a10.43,10.43,0,0,0-3.23-5.68,10.51,10.51,0,0,1-3.44-6.7.65.65,0,0,0-1.29.14,11.79,11.79,0,0,0,3.86,7.52,9.15,9.15,0,0,1,2.9,5.32l0,.1v2.18H30.5a.65.65,0,0,0,0,1.3h.22v1.59H30.5a.65.65,0,0,0,0,1.29h.22v1.11a1.78,1.78,0,0,0,1.16,1.67A3.82,3.82,0,0,0,34,59.05a.75.75,0,0,0,.29.06.64.64,0,0,0,.29-1.22A2.53,2.53,0,0,1,33.2,56h5a2.56,2.56,0,0,1-1.38,1.88.64.64,0,0,0,.29,1.22.59.59,0,0,0,.29-.07A3.79,3.79,0,0,0,39.5,55.9a1.79,1.79,0,0,0,1.17-1.67V53.12h.23a.65.65,0,1,0,0-1.29h-.23V50.24ZM32,47.35h7.36v1.59H32Zm7.36,6.88a.47.47,0,0,1-.48.48h-6.4a.48.48,0,0,1-.48-.48V53.12h7.36Zm0-2.4H32V50.24h7.36Z"/><path d="M35.7,35.84a3.32,3.32,0,1,0-3.31-3.31A3.32,3.32,0,0,0,35.7,35.84Zm0-5.34a2,2,0,1,1-2,2A2,2,0,0,1,35.7,30.5Z"/><path d="M28.58,30.51a1.08,1.08,0,0,0-1.08,1.08v1.88a1.07,1.07,0,0,0,1.08,1.07h1.29a5.86,5.86,0,0,0,.28.69l-.91.91a1.07,1.07,0,0,0,0,1.52L30.57,39a1.07,1.07,0,0,0,1.52,0l.91-.91a5.24,5.24,0,0,0,.69.28v1.29a1.07,1.07,0,0,0,1.07,1.08h1.88a1.08,1.08,0,0,0,1.08-1.08V38.36a5.72,5.72,0,0,0,.68-.28l.91.91a1.07,1.07,0,0,0,1.53,0l1.32-1.33a1.07,1.07,0,0,0,0-1.52l-.91-.91c.11-.23.2-.45.29-.69h1.29a1.07,1.07,0,0,0,1.07-1.07V31.59a1.07,1.07,0,0,0-1.07-1.08H41.54c-.09-.23-.18-.46-.29-.68l.91-.91a1.09,1.09,0,0,0,0-1.53l-1.32-1.33a1.1,1.1,0,0,0-1.53,0L38.4,27a5.79,5.79,0,0,0-.68-.29V25.4a1.08,1.08,0,0,0-1.08-1.07H34.76a1.07,1.07,0,0,0-1.07,1.07v1.29A5.28,5.28,0,0,0,33,27l-.91-.92a1.07,1.07,0,0,0-1.52,0l-1.33,1.33a1.09,1.09,0,0,0,0,1.53l.91.91a5.72,5.72,0,0,0-.28.68Zm2.82-1.26-1.1-1.1,1-1,1.1,1.1a.64.64,0,0,0,.78.1,4.62,4.62,0,0,1,1.28-.53.64.64,0,0,0,.49-.63V25.62h1.44v1.55a.64.64,0,0,0,.49.63,4.62,4.62,0,0,1,1.28.53.64.64,0,0,0,.78-.1l1.11-1.1,1,1L40,29.25a.65.65,0,0,0-.1.79,5,5,0,0,1,.53,1.28.64.64,0,0,0,.62.48h1.56v1.45H41.05a.64.64,0,0,0-.62.49A5,5,0,0,1,39.9,35a.65.65,0,0,0,.1.79l1.1,1.1-1,1L39,36.82a.62.62,0,0,0-.78-.09,4.92,4.92,0,0,1-1.28.52.66.66,0,0,0-.49.63v1.56H35V37.88a.66.66,0,0,0-.49-.63,4.92,4.92,0,0,1-1.28-.52.62.62,0,0,0-.78.09l-1.1,1.1-1-1,1.1-1.1a.65.65,0,0,0,.1-.79A5.42,5.42,0,0,1,31,33.74a.64.64,0,0,0-.62-.49H28.79V31.8h1.56a.64.64,0,0,0,.62-.48A5.32,5.32,0,0,1,31.5,30a.65.65,0,0,0-.1-.79Z"/><path d="M44.12,24.21A11.86,11.86,0,0,0,24,31a.64.64,0,1,0,1.28.16,10.54,10.54,0,1,1,17.54,9.13,8.8,8.8,0,0,0-.95,1,.64.64,0,0,0,.06.91.72.72,0,0,0,.43.16.65.65,0,0,0,.49-.23,9.84,9.84,0,0,1,.84-.87,11.84,11.84,0,0,0,.46-17.07Z"/><path d="M135.73,32.69a10,10,0,0,0,1.59,5.36c.37.58.78,1.13,1.17,1.66a14.3,14.3,0,0,1,1.77,2.79,11,11,0,0,1,.86,5.73,22,22,0,0,1-.77,3.86,12.42,12.42,0,0,1-.74,1.86,3.88,3.88,0,0,1-.47.72,4.47,4.47,0,0,0-.73,1.27.64.64,0,0,0,.1.58.65.65,0,0,0,.52.26h16.5a.64.64,0,0,0,.63-.49c.24-1,1.17-3.61,2.63-4.48a52.85,52.85,0,0,0,5.51,1.65,2.42,2.42,0,0,0,2.84-1.72,3.89,3.89,0,0,0,.22-1.76,4.59,4.59,0,0,0-.1-.51,1.93,1.93,0,0,1-.07-.79c.05-.2.2-.31.59-.52a4.3,4.3,0,0,0,.45-.29,1,1,0,0,0,.39-.63,1.75,1.75,0,0,0-.21-1,7.37,7.37,0,0,0,.6-.48c.6-.51.2-1.22,0-1.64-.08-.15-.19-.33-.28-.53a1.07,1.07,0,0,1-.07-.66c0-.17.5-.41.78-.55a5.06,5.06,0,0,0,.68-.4,2,2,0,0,0,.95-1.21,2.71,2.71,0,0,0-.86-1.92,24.93,24.93,0,0,1-2.86-4.65.86.86,0,0,1-.11-.28c0-.18.21-.39.53-.68a2.49,2.49,0,0,0,1-1.46,2.15,2.15,0,0,0-.17-1.09c-.12-.31-.25-.61-.39-.92a7.65,7.65,0,0,1-.55-1.47l-.06-.24a17.55,17.55,0,0,0-.59-2.12,12.32,12.32,0,0,0-2.62-4.27,11.91,11.91,0,0,0-6.53-3.16,44.8,44.8,0,0,0-6.31-.9c-4-.21-7.47,1-11.15,3.88a10.84,10.84,0,0,0-3.9,5.61A19.53,19.53,0,0,0,135.73,32.69Z" fill="#273962"/><path d="M169.74,40.64a3,3,0,0,1-.39.31,2.9,2.9,0,0,1-.54.31c-.56.29-1.32.68-1.48,1.48a2.45,2.45,0,0,0,.18,1.46c.11.23.23.44.33.61l.1.19c-.27.22-.64.5-.8.61a.69.69,0,0,0-.26.44.67.67,0,0,0,.14.49,2.7,2.7,0,0,1,.25.4l-.14.08a2.13,2.13,0,0,0-1.2,1.34,2.73,2.73,0,0,0,.06,1.39c0,.14.06.27.08.41a2.66,2.66,0,0,1-.16,1.15,1.15,1.15,0,0,1-1.35.87,51.59,51.59,0,0,1-5.6-1.69h0l-1.67-.58-1.08-.37c-2.71-.85-3.26-1.83-3.25-2.51a.63.63,0,0,0-.63-.66.65.65,0,0,0-.67.63c0,1.63,1.36,2.9,4.16,3.78l1,.36.48.17a10.43,10.43,0,0,0-2.3,4.17H140.17a.08.08,0,0,0,0,0,5.59,5.59,0,0,0,.6-.92,14.56,14.56,0,0,0,.81-2.05,23.57,23.57,0,0,0,.81-4.08,12.34,12.34,0,0,0-.95-6.41,15.82,15.82,0,0,0-1.92-3c-.38-.51-.77-1-1.11-1.58a8.75,8.75,0,0,1-1.4-4.68,18.46,18.46,0,0,1,.64-5.17,9.37,9.37,0,0,1,3.44-4.93c3.42-2.68,6.59-3.79,10.28-3.61a43.58,43.58,0,0,1,6.12.88,10.77,10.77,0,0,1,5.85,2.78,11.07,11.07,0,0,1,2.34,3.82,16.89,16.89,0,0,1,.54,2l.06.24a8.78,8.78,0,0,0,.63,1.71c.12.27.25.55.36.84a1.19,1.19,0,0,1,.1.46c0,.2-.28.42-.54.67a2.28,2.28,0,0,0-1,1.63,1.84,1.84,0,0,0,.26.88,25.68,25.68,0,0,0,3,4.85C169.63,40.3,169.73,40.54,169.74,40.64Z" fill="#ddecf8"/><path d="M139.17,28.73a9.39,9.39,0,0,0,0,3.26.66.66,0,0,0,.65.54h1.35a7.24,7.24,0,0,0,.61,1.47l-1,1a.65.65,0,0,0-.07.83,9.22,9.22,0,0,0,2.31,2.31.65.65,0,0,0,.83-.07l1-1a7.24,7.24,0,0,0,1.47.61V39a.66.66,0,0,0,.54.65,9.39,9.39,0,0,0,3.26,0,.66.66,0,0,0,.54-.65V37.68a7.24,7.24,0,0,0,1.47-.61l1,1a.65.65,0,0,0,.83.07,9.22,9.22,0,0,0,2.31-2.31.65.65,0,0,0-.07-.83l-1-1a7.24,7.24,0,0,0,.61-1.47h1.35a.66.66,0,0,0,.65-.54,9.39,9.39,0,0,0,0-3.26.66.66,0,0,0-.65-.54h-1.35a7.24,7.24,0,0,0-.61-1.47l1-1a.65.65,0,0,0,.07-.83,9.22,9.22,0,0,0-2.31-2.31.65.65,0,0,0-.83.07l-1,1a7.24,7.24,0,0,0-1.47-.61V21.69a.66.66,0,0,0-.54-.65,9.39,9.39,0,0,0-3.26,0,.66.66,0,0,0-.54.65V23a7.24,7.24,0,0,0-1.47.61l-1-1a.65.65,0,0,0-.83-.07,9.22,9.22,0,0,0-2.31,2.31.65.65,0,0,0,.07.83l1,1a7.24,7.24,0,0,0-.61,1.47h-1.35A.66.66,0,0,0,139.17,28.73Z" fill="#273962"/><path d="M156.65,30.36a8.46,8.46,0,0,1-.05.87h-1.29a.64.64,0,0,0-.64.51,6.13,6.13,0,0,1-.84,2,.67.67,0,0,0,.09.82l.92.91a8.94,8.94,0,0,1-1.23,1.23l-.91-.92a.67.67,0,0,0-.82-.09,6.13,6.13,0,0,1-2,.84.64.64,0,0,0-.51.64v1.29a8.43,8.43,0,0,1-1.74,0V37.18a.64.64,0,0,0-.51-.64,6.13,6.13,0,0,1-2-.84.67.67,0,0,0-.82.09l-.91.92a8.94,8.94,0,0,1-1.23-1.23l.92-.91a.67.67,0,0,0,.09-.82,6.13,6.13,0,0,1-.84-2,.64.64,0,0,0-.64-.51h-1.29a8.43,8.43,0,0,1,0-1.74h1.29a.64.64,0,0,0,.64-.51,6.13,6.13,0,0,1,.84-2,.67.67,0,0,0-.09-.82l-.92-.91A8.94,8.94,0,0,1,143.37,24l.91.92a.67.67,0,0,0,.82.09,6.13,6.13,0,0,1,2-.84.64.64,0,0,0,.51-.64V22.25a8.43,8.43,0,0,1,1.74,0v1.29a.64.64,0,0,0,.51.64,6.13,6.13,0,0,1,2,.84.67.67,0,0,0,.82-.09l.91-.92a8.94,8.94,0,0,1,1.23,1.23l-.92.91a.67.67,0,0,0-.09.82,6.13,6.13,0,0,1,.84,2,.64.64,0,0,0,.64.51h1.29A8.46,8.46,0,0,1,156.65,30.36Z" fill="#44c7f4"/><path d="M144.25,30.36a4.24,4.24,0,1,0,4.24-4.24A4.24,4.24,0,0,0,144.25,30.36Zm1.3,0a2.94,2.94,0,1,1,2.94,2.94A2.94,2.94,0,0,1,145.55,30.36Z" fill="#273962"/><path d="M273.21,47.82H259.47a3.29,3.29,0,0,1-3.29-3.28V26a3.29,3.29,0,0,1,3.29-3.28h13.74A3.28,3.28,0,0,1,276.49,26V44.54a3.28,3.28,0,0,1-3.28,3.28Z" fill="#1976d2"/><path d="M279.43,51.36H266.11a3.19,3.19,0,0,1-3.18-3.18V31.39a3.19,3.19,0,0,1,3.18-3.19h13.32a3.18,3.18,0,0,1,3.18,3.19V48.18A3.18,3.18,0,0,1,279.43,51.36Z" fill="#eceff1"/><path d="M277.6,43.64H268a1,1,0,1,1,0-1.93h9.65a1,1,0,0,1,0,1.93Z"/><path d="M277.6,48.79H268a1,1,0,1,1,0-1.93h9.65a1,1,0,0,1,0,1.93Z"/><path d="M277.6,39.14H268a1,1,0,1,1,0-1.93h9.65a1,1,0,0,1,0,1.93Z"/><path d="M277.6,34H268a1,1,0,1,1,0-1.93h9.65a1,1,0,0,1,0,1.93Z"/><path d="M258.94,48.79a3.55,3.55,0,0,1-3.54-3.54V25.31a3.55,3.55,0,0,1,3.54-3.54h14.8a3.51,3.51,0,0,1,3.05,1.78,1,1,0,0,1-1.68.95,1.56,1.56,0,0,0-1.37-.8h-14.8a1.61,1.61,0,0,0-1.61,1.61V45.25a1.61,1.61,0,0,0,1.61,1.61,1,1,0,1,1,0,1.93Z"/><path d="M280.17,52.65h-14.8a3.54,3.54,0,0,1-3.53-3.54V30.46a3.53,3.53,0,0,1,3.53-3.54h14.8a3.54,3.54,0,0,1,3.54,3.54V49.11A3.55,3.55,0,0,1,280.17,52.65Zm-14.8-23.8a1.61,1.61,0,0,0-1.6,1.61V49.11a1.61,1.61,0,0,0,1.6,1.61h14.8a1.61,1.61,0,0,0,1.61-1.61V30.46a1.61,1.61,0,0,0-1.61-1.61Z"/><path d="M402.69,18.65a33.36,33.36,0,0,1-1.83,8.84l-7-7A33.16,33.16,0,0,1,402.69,18.65Z" fill="#ff5249"/><path d="M393.85,20.49l7,7a24.82,24.82,0,0,1-5.64,9.3,29.58,29.58,0,0,1-8.89,6.05L378.5,35a30.11,30.11,0,0,1,4.05-6.65,26.08,26.08,0,0,1,2-2.24A24.66,24.66,0,0,1,393.85,20.49Z" fill="#fff"/><path d="M394.15,27.19a3,3,0,1,1-4.26,0A3,3,0,0,1,394.15,27.19Z" fill="#7bd8e8"/><path d="M393.09,38.92c3.88,5.83-3.39,9.6-7.47,9.6a5.61,5.61,0,0,0,1.51-4.89l-.8-.79A29.88,29.88,0,0,0,393,38.79Z" fill="#ff5249"/><path d="M377.63,40.53l-.13-.12a1.48,1.48,0,0,1-.41-1.38,27.09,27.09,0,0,1,1.41-4l7.83,7.83a26.7,26.7,0,0,1-4,1.41,1.48,1.48,0,0,1-1.38-.41l-.12-.13Z" fill="#ff5249"/><path d="M382.42,28.25l.13.11A30.11,30.11,0,0,0,378.5,35l-.79-.8a5.61,5.61,0,0,0-4.89,1.51C372.82,31.64,376.59,24.37,382.42,28.25Z" fill="#ff5249"/><path d="M377.63,40.53l3.18,3.18a5.94,5.94,0,0,1-1.59,2.68c-1.77,1.77-6.4,2.13-6.4,2.13s.36-4.63,2.13-6.4A5.94,5.94,0,0,1,377.63,40.53Z" fill="#ffdd78"/><path d="M385.1,37.32a.75.75,0,1,0-1.06,0A.74.74,0,0,0,385.1,37.32Z"/><path d="M394.71,32a3.78,3.78,0,1,0-5.34,0A3.78,3.78,0,0,0,394.71,32Zm-4.27-4.27a2.26,2.26,0,1,1,0,3.2A2.27,2.27,0,0,1,390.44,27.72Z"/><path d="M372.55,36.42a.72.72,0,0,0,.29.06.75.75,0,0,0,.53-.23,4.81,4.81,0,0,1,4-1.34l.27.27a27.33,27.33,0,0,0-1.25,3.66,2.17,2.17,0,0,0,.09,1.31,7.32,7.32,0,0,0-2,1.44c-1.95,1.94-2.34,6.67-2.36,6.87a.83.83,0,0,0,.22.6.77.77,0,0,0,.54.22h.06c.2,0,4.93-.41,6.87-2.36a7.32,7.32,0,0,0,1.44-2,2.2,2.2,0,0,0,1.31.09,27.33,27.33,0,0,0,3.66-1.25l.26.27a4.78,4.78,0,0,1-1.34,4,.76.76,0,0,0,.54,1.29c3,0,7.16-1.78,8.7-4.65a5.56,5.56,0,0,0-.33-5.69c.61-.52,1.2-1.06,1.76-1.62a25.3,25.3,0,0,0,5.82-9.58,33.86,33.86,0,0,0,1.87-9.06.75.75,0,0,0-.78-.78,33.4,33.4,0,0,0-9.06,1.87A25.3,25.3,0,0,0,384,25.59c-.56.55-1.1,1.15-1.62,1.76a5.56,5.56,0,0,0-5.69-.33c-2.87,1.54-4.65,5.72-4.65,8.7A.76.76,0,0,0,372.55,36.42Zm6.15,9.44c-1,1-3.47,1.58-5,1.8.23-1.53.78-4,1.81-5a5.53,5.53,0,0,1,1.93-1.27L380,43.93A5.53,5.53,0,0,1,378.7,45.86Zm3.44-2.34a.72.72,0,0,1-.66-.22l-3.42-3.42a.72.72,0,0,1-.22-.66,24.73,24.73,0,0,1,.94-2.88L385,42.57A23.06,23.06,0,0,1,382.14,43.52Zm10.87.4c-1,1.84-3.48,3.2-5.75,3.67a6.46,6.46,0,0,0,.62-4.14.7.7,0,0,0-.23-.38,31,31,0,0,0,5.17-3.17A4,4,0,0,1,393,43.92Zm7.53-17.83-5.27-5.27a33.33,33.33,0,0,1,6.62-1.35A33.33,33.33,0,0,1,400.54,26.09Zm-15.44.56a23.61,23.61,0,0,1,8.58-5.29L400,27.68a23.61,23.61,0,0,1-5.29,8.58,29.1,29.1,0,0,1-2.18,2,29.3,29.3,0,0,1-6,3.73l-7.1-7.1a29.3,29.3,0,0,1,3.73-6A27.25,27.25,0,0,1,385.1,26.65Zm-7.66,1.7a4,4,0,0,1,4,.19,31,31,0,0,0-3.17,5.17.74.74,0,0,0-.4-.23,6.34,6.34,0,0,0-4.12.62C374.24,31.83,375.6,29.34,377.44,28.35Z"/><path d="M380.84,52.26,383,50.12a.74.74,0,0,0,0-1.06.75.75,0,0,0-1.07,0l-2.13,2.13a.76.76,0,1,0,1.07,1.07Z"/><path d="M370.17,41.59l2.13-2.13a.75.75,0,0,0,0-1.07.74.74,0,0,0-1.06,0l-2.14,2.13a.76.76,0,1,0,1.07,1.07Z"/><path d="M376.57,50.12l-5.11,5.11a.77.77,0,0,0,0,1.07.75.75,0,0,0,1.07,0l5.11-5.11a.76.76,0,1,0-1.07-1.07Z"/><path d="M370.53,50.12l-5.11,5.11a.77.77,0,0,0,0,1.07.75.75,0,0,0,1.07,0l5.11-5.11a.75.75,0,0,0,0-1.07A.77.77,0,0,0,370.53,50.12Z"/><path d="M366.13,49.9l5.11-5.11a.76.76,0,1,0-1.07-1.07l-5.11,5.11a.75.75,0,0,0,0,1.07A.77.77,0,0,0,366.13,49.9Z"/><path d="M387.24,35.19l1.06-1.07a.75.75,0,0,0-1.06-1.07l-1.07,1.07a.76.76,0,0,0,1.07,1.07Z"/><rect x="66.08" y="32" width="55.96" height="10.42" fill="#20fc00"/><rect x="180.9" y="32" width="55.96" height="10.42" fill="#20fc00"/><rect x="301.77" y="32" width="55.96" height="10.42" fill="#20fc00"/></svg>